<svg id="Capa_1" enable-background="new 0 0 512 512" height="512" viewBox="0 0 512 512" width="512" xmlns="http://www.w3.org/2000/svg"><g><g><path d="m354.5 392.5c44.183 0 80 35.817 80 80v12c0 11.046-8.954 20-20 20h-317c-11.046 0-20-8.954-20-20v-12c0-44.183 35.817-80 80-80z" fill="#baf39a"/><g fill="#9ae59c"><path d="m434.5 472.5v12c0 11.05-8.95 20-20 20h-30c11.05 0 20-8.95 20-20v-12c0-44.18-35.82-80-80-80h30c44.18 0 80 35.82 80 80z"/><path d="m178.5 259.5h-56.5c-16.845 0-30.5-13.655-30.5-30.5 0-16.845 13.655-30.5 30.5-30.5h56.5z"/><path d="m343.5 198.5h46.5c16.845 0 30.5 13.655 30.5 30.5 0 16.845-13.655 30.5-30.5 30.5h-46.5z"/><path d="m299.5 332.5v60.5c0 24.024-19.476 43.5-43.5 43.5-24.024 0-43.5-19.476-43.5-43.5v-60.5z"/></g><path d="m138.5 149.5v90.5c0 64.893 52.606 117.5 117.5 117.5 64.893 0 117.5-52.606 117.5-117.5v-91.5z" fill="#baf39a"/><path d="m373.5 148.5v91.5c0 32.44-13.15 61.82-34.42 83.08-21.26 21.27-50.64 34.42-83.08 34.42-5.08 0-10.09-.32-15-.95 26.45-3.37 50.15-15.53 68.08-33.47 21.27-21.26 34.42-50.64 34.42-83.08v-91.37z" fill="#9ae59c"/><path d="m132.5 504.5v-116.455c0-5.523 4.477-10 10-10h30c5.523 0 10 4.477 10 10v4.955c0 40.593 32.907 73.5 73.5 73.5 40.593 0 73.5-32.907 73.5-73.5v-4.955c0-5.523 4.477-10 10-10h30.001c5.523 0 10 4.477 10 10v116.455z" fill="#736572"/><path d="m379.5 388.04v116.46h-30v-116.46c0-5.52-4.48-10-10-10h30c5.52 0 10 4.48 10 10z" fill="#615260"/><path d="m168.5 168.5v10c0 11.05-8.95 20-20 20h-26.5c-4.85 0-9.43 1.13-13.5 3.15v-43.15z" fill="#82d182"/><path d="m403.5 158.5v43.15c-4.07-2.02-8.65-3.15-13.5-3.15h-26.5c-11.05 0-20-8.95-20-20v-10z" fill="#82d182"/><path d="m379.5 504.5h-30v-21c0-13.807 11.193-25 25-25h5z" fill="#514a54"/><path d="m162.5 504.5h-30v-46h5c13.807 0 25 11.193 25 25z" fill="#615260"/><path d="m408.5 138.5c5.523 0 10 4.477 10 10v10c0 5.523-4.477 10-10 10h-305c-5.523 0-10-4.477-10-10v-10c0-5.523 4.477-10 10-10z" fill="#615260"/><path d="m303.5 7.5h-95c-55.228 0-100 44.772-100 100v31h295v-31c0-55.228-44.772-100-100-100z" fill="#615260"/><path d="m303.5 7.5h-95c-55.228 0-100 44.772-100 100v31h295v-31c0-55.228-44.772-100-100-100z" fill="#736572"/><path d="m403.5 107.5v31h-30v-31c0-55.23-44.77-100-100-100h30c55.23 0 100 44.77 100 100z" fill="#615260"/><path d="m258.69 39.259 9.327 18.898c.437.885 1.282 1.499 2.259 1.641l20.855 3.03c2.461.358 3.443 3.381 1.663 5.117l-15.091 14.71c-.707.689-1.03 1.682-.863 2.655l3.562 20.771c.42 2.451-2.152 4.32-4.353 3.163l-18.653-9.807c-.874-.459-1.918-.459-2.792 0l-18.653 9.807c-2.201 1.157-4.773-.712-4.353-3.163l3.562-20.771c.167-.973-.156-1.966-.863-2.655l-15.091-14.71c-1.781-1.736-.798-4.76 1.663-5.117l20.855-3.03c.977-.142 1.822-.756 2.259-1.641l9.327-18.898c1.1-2.229 4.28-2.229 5.38 0z" fill="#918490"/><path d="m403.47 105.04c-6.47 2.77-13.37 4.85-20.44 4.7-8.26-.17-16.87-4.03-20.75-11.34-3.86-7.28-2.37-16.07-2.09-24.31.1-3.01.01-6.1-1.16-8.87-1.88-4.46-6.26-7.38-10.73-9.24-4.47-1.87-9.26-2.96-13.56-5.19-6.5-3.38-11.59-9.39-13.85-16.36-2.7-8.31-.9-17.19 2.77-24.9h.01c44.78 9.17 78.66 48.28 79.8 95.51z" fill="#918490"/><path d="m403.47 105.04c-6.47 2.77-13.37 4.85-20.44 4.7-3.22-.06-6.5-.69-9.53-1.87v-.37c0-38.31-21.54-71.58-53.16-88.37.71-3.31 1.87-6.55 3.32-9.6h.01c44.78 9.17 78.66 48.28 79.8 95.51z" fill="#847b84"/><path d="m182.22 138.5h-73.72v-31c0-9.47 1.31-18.62 3.77-27.3 2.69.06 5.37.33 7.97.9 5.86 1.29 11.53 4.48 14.61 9.62 2.44 4.1 3.32 9.4 7.18 12.19 3.57 2.57 8.39 2.08 12.73 2.78 7.72 1.23 14.34 6.52 18.77 12.96 4.12 5.98 6.6 12.89 8.69 19.85z" fill="#918490"/><path d="m219.15 7.5c-.18 4.03-.78 8.06-1.92 11.74-2.05 6.65-6.74 12.88-13.39 14.91-6.16 1.88-13.11-.02-19.05 2.44-5.69 2.36-9.1 8.1-13.7 12.2-7.24 6.44-17.49 8.65-27.16 8.05-6.55-.41-12.94-1.97-19.24-3.9 17.83-27.36 48.71-45.44 83.81-45.44z" fill="#918490"/><path d="m418.5 148.5v10c0 5.52-4.48 10-10 10h-30c5.52 0 10-4.48 10-10v-10c0-5.52-4.48-10-10-10h30c5.52 0 10 4.48 10 10z" fill="#514a54"/></g><g><path d="m315.5 251.5c4.142 0 7.5-3.358 7.5-7.5v-15c0-4.142-3.358-7.5-7.5-7.5s-7.5 3.358-7.5 7.5v15c0 4.142 3.358 7.5 7.5 7.5z"/><path d="m196.5 221.5c-4.142 0-7.5 3.358-7.5 7.5v15c0 4.142 3.358 7.5 7.5 7.5s7.5-3.358 7.5-7.5v-15c0-4.142-3.358-7.5-7.5-7.5z"/><path d="m298.321 280.531c-2.667-3.17-7.398-3.577-10.567-.91-18.784 15.805-44.887 15.813-63.481.022-3.158-2.681-7.891-2.294-10.572.862-2.681 3.157-2.295 7.89.862 10.572 12.148 10.317 26.74 15.474 41.362 15.474 14.607 0 29.245-5.151 41.487-15.452 3.169-2.668 3.576-7.399.909-10.568z"/><path d="m219.792 55.406c-3.984.579-7.232 3.317-8.477 7.146s-.226 7.954 2.657 10.764l13.396 13.059-3.162 18.438c-.681 3.968.92 7.904 4.177 10.27 3.266 2.374 7.508 2.667 11.058.799l16.559-8.705 16.559 8.706c3.564 1.874 7.8 1.568 11.058-.799 3.257-2.366 4.858-6.302 4.177-10.27l-3.162-18.439 13.396-13.059c2.883-2.811 3.901-6.935 2.657-10.764s-4.492-6.567-8.476-7.146l-18.514-2.69-8.279-16.776c-1.782-3.61-5.39-5.853-9.416-5.853s-7.634 2.243-9.416 5.853l-8.279 16.776zm30.917 6.071 5.291-10.722 5.292 10.722c1.53 3.099 4.485 5.246 7.905 5.743l11.832 1.719-8.559 8.343c-2.478 2.413-3.607 5.888-3.022 9.296l2.021 11.784-10.583-5.564c-3.06-1.608-6.712-1.608-9.772 0l-10.583 5.564 2.021-11.783c.585-3.409-.545-6.885-3.02-9.294l-8.562-8.346 11.833-1.719c3.421-.497 6.376-2.644 7.906-5.743z"/><path d="m387.001 391.24v-3.195c0-9.649-7.851-17.5-17.5-17.5h-30.001c-8.609 0-15.77 6.255-17.217 14.456h-15.283v-30.886c35.619-15.982 62.445-48.164 71.054-87.114h11.946c20.953 0 38-17.047 38-38 0-13.194-6.762-24.835-17-31.65v-21.551c8.466-1.22 15-8.502 15-17.3v-10c0-8.798-6.534-16.081-15-17.3v-23.7c0-59.276-48.224-107.5-107.5-107.5h-95c-59.276 0-107.5 48.224-107.5 107.5v23.7c-8.466 1.22-15 8.502-15 17.3v10c0 8.798 6.534 16.081 15 17.3v21.55c-10.237 6.815-17 18.456-17 31.65 0 20.953 17.047 38 38 38h11.936c8.609 38.95 35.445 71.129 71.064 87.111v30.889h-15.283c-1.447-8.201-8.608-14.456-17.217-14.456h-30c-9.649 0-17.5 7.851-17.5 17.5v3.201c-33.055 13.218-55 45.378-55 81.255v12c0 15.164 12.336 27.5 27.5 27.5h217c4.142 0 7.5-3.358 7.5-7.5s-3.358-7.5-7.5-7.5h-144.5v-13.5c0-17.078-13.244-31.112-30-32.394v-63.061c0-1.378 1.122-2.5 2.5-2.5h30c1.378 0 2.5 1.122 2.5 2.5v4.955c0 44.664 36.336 81 81 81s81-36.336 81-81v-4.956c0-1.378 1.122-2.5 2.5-2.5h30.001c1.378 0 2.5 1.122 2.5 2.5v63.061c-16.756 1.282-30.001 15.316-30.001 32.395v21c0 4.142 3.358 7.5 7.5 7.5h65c15.164 0 27.5-12.336 27.5-27.5v-12c0-35.838-21.956-68.043-54.999-81.26zm-302.001 93.26v-12c0-27.664 15.747-52.655 40-64.819v89.319h-27.5c-6.893 0-12.5-5.607-12.5-12.5zm70-1v13.5h-15v-30.8c8.466 1.219 15 8.502 15 17.3zm235-231.5h-9.579c.378-3.951.579-7.952.579-12v-3.5h9.5c4.142 0 7.5-3.358 7.5-7.5s-3.358-7.5-7.5-7.5h-9.5v-15.5h9c12.682 0 23 10.318 23 23s-10.318 23-23 23zm0-61h-26.5c-6.893 0-12.5-5.607-12.5-12.5v-2.5h45v15.478c-1.955-.311-3.958-.478-6-.478zm5.695-90.996c-4.655 1.594-8.709 2.326-12.511 2.237-5.221-.107-11.661-2.424-14.278-7.354-2.167-4.087-1.826-9.768-1.464-15.783.096-1.597.191-3.188.245-4.765.12-3.623.007-7.886-1.745-12.033-2.412-5.721-7.377-10.18-14.746-13.246-2.054-.859-4.074-1.542-6.028-2.202-2.533-.855-4.924-1.664-6.967-2.723-4.729-2.459-8.533-6.953-10.177-12.024-1.537-4.73-.957-9.623.249-13.738 36.693 10.212 64.271 42.525 67.422 81.631zm-82.204-84.463c-1.937 7.434-1.864 14.65.265 21.202 2.872 8.858 9.259 16.403 17.531 20.706 3.068 1.591 6.123 2.623 9.078 3.622 1.786.604 3.474 1.174 5.054 1.835 3.516 1.462 5.895 3.319 6.702 5.234.623 1.475.639 3.709.573 5.697-.049 1.443-.138 2.903-.226 4.369-.448 7.453-.956 15.9 3.187 23.712 4.887 9.206 15.317 15.077 27.215 15.322.291.006.582.009.874.009 3.904 0 7.968-.567 12.255-1.687v15.438h-208.307c-1.785-5.217-4.253-11.187-7.983-16.601-6.053-8.8-14.716-14.674-23.754-16.114-1.504-.243-2.926-.359-4.302-.472-2.145-.176-4.362-.357-5.23-.982-.859-.621-1.719-2.648-2.551-4.609-.699-1.646-1.49-3.512-2.588-5.357-3.793-6.329-10.686-11.034-18.961-12.974 1.65-4.217 3.601-8.284 5.827-12.175 5.637 1.469 10.587 2.315 15.317 2.611 1.206.075 2.4.112 3.581.112 11.476 0 21.683-3.51 29.033-10.049 1.837-1.637 3.399-3.364 4.909-5.035 2.383-2.635 4.441-4.91 6.67-5.835 1.873-.775 4.441-.825 7.414-.882 3.326-.063 7.096-.136 10.956-1.314 8.462-2.583 15.328-10.013 18.365-19.863.63-2.034 1.124-4.199 1.499-6.46h77.606c3.375-.001 6.708.186 9.991.54zm-197.491 91.959c0-6.581.696-13.001 2.009-19.196.206.04.418.077.619.121 4.468.983 8.037 3.225 9.777 6.13.565.95 1.096 2.201 1.658 3.525 1.481 3.492 3.326 7.838 7.585 10.916 4.262 3.068 8.984 3.456 12.779 3.767 1.138.094 2.213.182 3.153.333 5.016.799 10.035 4.372 13.774 9.808 1.749 2.538 3.153 5.308 4.324 8.095h-55.678zm92.5-92.5h2.115c-.166.698-.349 1.376-.552 2.031-1.213 3.937-4.061 8.618-8.412 9.946-1.859.567-4.291.614-6.864.664-3.925.075-8.375.16-12.869 2.022-5.349 2.218-8.911 6.156-12.053 9.631-1.302 1.439-2.531 2.799-3.759 3.893-5.019 4.465-12.933 6.718-21.707 6.168-2.22-.139-4.541-.443-7.032-.916 16.98-20.418 42.563-33.439 71.133-33.439zm-92.5 161h45v2.5c0 6.893-5.607 12.5-12.5 12.5h-26.5c-2.042 0-4.045.167-6 .478zm6 76c-12.682 0-23-10.318-23-23s10.318-23 23-23h9v15.5h-9.5c-4.142 0-7.5 3.358-7.5 7.5s3.358 7.5 7.5 7.5h9.5v3.5c0 4.047.193 8.05.571 12zm24-12v-34h2.5c15.164 0 27.5-12.336 27.5-27.5v-10c0-4.142-3.358-7.5-7.5-7.5h-65c-1.378 0-2.5-1.122-2.5-2.5v-10c0-1.378 1.122-2.5 2.5-2.5h305c1.378 0 2.5 1.122 2.5 2.5v10c0 1.378-1.122 2.5-2.5 2.5h-205c-4.142 0-7.5 3.358-7.5 7.5s3.358 7.5 7.5 7.5h132.5v2.5c0 15.164 12.336 27.5 27.5 27.5h2.5v34c0 60.654-49.346 110-110 110s-110-49.346-110-110zm110 125c12.511 0 24.594-1.856 36-5.292v33.292c0 19.851-16.149 36-36 36s-36-16.149-36-36v-33.29c11.405 3.436 23.49 5.29 36 5.29zm0 94c-34.028 0-62.118-25.887-65.625-59h15.118c3.424 24.82 24.762 44 50.508 44s47.084-19.18 50.508-44h15.118c-3.509 33.113-31.599 59-65.627 59zm101 24.5c0-8.799 6.534-16.081 15.001-17.3v30.8h-15.001zm70 1c0 6.893-5.607 12.5-12.5 12.5h-27.499v-89.32c24.245 12.168 39.999 37.188 39.999 64.82z"/></g></g></svg>