<svg id="Capa_1" enable-background="new 0 0 512 512" height="512" viewBox="0 0 512 512" width="512" xmlns="http://www.w3.org/2000/svg"><g><g><path d="m174.755 372.406 142.485.002v36.324l-71.243 23.454-71.242-42.256z" fill="#00ddf9"/><path d="m358.5 342.5c19.33 0 35-15.67 35-35v-56.136l-295-15.453v71.589c0 19.33 15.67 35 35 35z" fill="#e29a6c"/><path d="m344.5 392.5c44.183 0 80 35.817 80 80v12c0 11.046-8.954 20-20 20h-317c-11.046 0-20-8.954-20-20v-12c0-44.183 35.817-80 80-80z" fill="#fcf1f2"/><path d="m424.5 472.5v12c0 11.05-8.95 20-20 20h-30c11.05 0 20-8.95 20-20v-12c0-44.18-35.82-80-80-80h30c44.18 0 80 35.82 80 80z" fill="#f4e5e0"/><path d="m217.5 392.5v112h-95v-108.01c7.87-2.59 16.27-3.99 25-3.99z" fill="#00ddf9"/><path d="m369.5 396.49v108.01h-95v-112h70c8.73 0 17.13 1.4 25 3.99z" fill="#00ddf9"/><path d="m369.5 396.49v17.91c-14.34-13.57-33.7-21.9-55-21.9h30c8.73 0 17.13 1.4 25 3.99z" fill="#00c7f8"/><g fill="#ecbd83"><path d="m289.5 402.5v-80h-87v90l43.497 19.686z"/><path d="m333.5 259.5h46.5c16.845 0 30.5-13.655 30.5-30.5 0-16.845-13.655-30.5-30.5-30.5h-46.5z"/><path d="m168.5 259.5h-56.5c-16.845 0-30.5-13.655-30.5-30.5 0-16.845 13.655-30.5 30.5-30.5h56.5z"/></g><path d="m363.5 156.5v83.5c0 64.893-52.606 117.5-117.5 117.5-64.893 0-117.5-52.606-117.5-117.5v-83.5z" fill="#f6d190"/><path d="m363.5 156.5v83.5c0 64.89-52.61 117.5-117.5 117.5-5.08 0-10.09-.32-15-.95 57.81-7.37 102.5-56.74 102.5-116.55v-83.5z" fill="#ecbd83"/><path d="m158.5 158.5v20c0 11.05-8.95 20-20 20h-26.5c-4.85 0-9.43 1.13-13.5 3.15v-48.15z" fill="#e29a6c"/><path d="m393.5 156.5v45.15c-4.07-2.02-8.65-3.15-13.5-3.15h-26.5c-11.05 0-20-8.95-20-20v-20z" fill="#e29a6c"/><path d="m398.5 168.5c5.523 0 10-4.477 10-10v-10c0-5.523-4.477-10-10-10h-305c-5.523 0-10 4.477-10 10v10c0 5.523 4.477 10 10 10z" fill="#b696ef"/><path d="m408.5 148.5v10c0 5.52-4.48 10-10 10h-30c5.52 0 10-4.48 10-10v-10c0-5.52-4.48-10-10-10h30c5.52 0 10 4.48 10 10z" fill="#a18ae2"/><path d="m98.821 138.43-22.332-9.386c-9.082-3.817-14.989-12.708-14.989-22.559 0-10.012 6.099-19.014 15.397-22.727l52.605-25.387c28.466-13.737 59.665-20.871 91.271-20.871h179.227c27.89 0 50.5 22.61 50.5 50.5 0 27.89-22.61 50.5-50.5 50.5h-6.5z" fill="#cbb0f2"/><path d="m450.5 88c0 13.94-5.65 26.57-14.79 35.71s-21.77 14.79-35.71 14.79h-6.5l-23.14-.01c13.8-.09 26.29-5.72 35.35-14.78 9.14-9.14 14.79-21.77 14.79-35.71 0-27.89-22.61-50.5-50.5-50.5h30c27.89 0 50.5 22.61 50.5 50.5z" fill="#b696ef"/><path d="m246 7.5c-12.703 0-23 10.297-23 23v7h46v-7c0-12.703-10.297-23-23-23z" fill="#b696ef"/><path d="m332.104 413.458-48.261 40.496c-6.346 5.325-15.807 4.497-21.132-1.849l-16.712-19.917 71.242-59.779 16.712 19.917c5.325 6.345 4.497 15.807-1.849 21.132z" fill="#bcf1f8"/><path d="m159.891 413.456 48.261 40.496c6.346 5.325 15.807 4.497 21.132-1.849l16.712-19.917-71.242-59.779-16.712 19.917c-5.325 6.346-4.497 15.807 1.849 21.132z" fill="#bcf1f8"/></g><g><circle cx="312" cy="287" r="10"/><path d="m305.5 251.5c4.143 0 7.5-3.358 7.5-7.5v-15c0-4.142-3.357-7.5-7.5-7.5s-7.5 3.358-7.5 7.5v15c0 4.142 3.357 7.5 7.5 7.5z"/><path d="m186.5 251.5c4.142 0 7.5-3.358 7.5-7.5v-15c0-4.142-3.358-7.5-7.5-7.5s-7.5 3.358-7.5 7.5v15c0 4.142 3.358 7.5 7.5 7.5z"/><path d="m204.562 291.076c12.148 10.317 26.74 15.474 41.362 15.474 14.608 0 29.246-5.151 41.488-15.452 3.169-2.667 3.576-7.398.91-10.567-2.669-3.169-7.397-3.578-10.568-.91-18.783 15.805-44.888 15.813-63.481.022-3.158-2.681-7.89-2.294-10.572.862-2.681 3.157-2.296 7.89.861 10.571z"/><circle cx="180" cy="287" r="10"/><path d="m458 88c0-31.981-26.019-58-58-58h-123.513c-.269-16.587-13.837-30-30.487-30-16.675 0-30.26 13.453-30.489 30.075-30.79.76-61.543 8.162-89.268 21.541l-52.386 25.28c-12.072 4.94-19.857 16.523-19.857 29.588 0 12.904 7.687 24.473 19.583 29.474l5.689 2.391c-2.051 2.867-3.272 6.365-3.272 10.151v10c0 8.798 6.534 16.081 15 17.3v21.55c-10.237 6.815-17 18.456-17 31.65s6.763 24.834 17 31.65v46.85c0 23.435 19.065 42.5 42.5 42.5h53.173c2.717 1.471 5.495 2.843 8.327 4.114v10.793h-20.245c-2.192 0-4.335 1.002-5.746 2.679l-14.612 17.414h-6.897c-48.248 0-87.5 39.252-87.5 87.5v12c0 15.164 12.336 27.5 27.5 27.5h247c4.143 0 7.5-3.358 7.5-7.5s-3.357-7.5-7.5-7.5h-52.5v-33.425c2.396-.887 4.649-2.186 6.664-3.877l48.261-40.496c4.604-3.863 7.428-9.288 7.951-15.275.115-1.32.097-2.629-.014-3.922 5.903.029 11.644.763 17.138 2.13v102.365c0 4.142 3.357 7.5 7.5 7.5h35c15.163 0 27.5-12.336 27.5-27.5v-12c0-48.248-39.252-87.5-87.5-87.5h-6.904l-14.562-17.354c-1.408-1.713-3.576-2.738-5.794-2.738h-20.24v-10.794c2.833-1.271 5.61-2.643 8.327-4.114h53.173c23.435 0 42.5-19.065 42.5-42.5v-46.85c10.238-6.815 17-18.456 17-31.65s-6.762-24.835-17-31.65v-21.55c8.466-1.22 15-8.502 15-17.3v-10c0-1.588-.231-3.12-.63-4.583 24.544-6.755 42.63-29.257 42.63-55.917zm-81 319.701c23.702 11.936 40 36.5 40 64.799v12c0 6.893-5.607 12.5-12.5 12.5h-27.5zm-131-392.701c8.378 0 15.208 6.686 15.475 15h-30.949c.266-8.314 7.096-15 15.474-15zm-140 161h45v2.5c0 6.893-5.607 12.5-12.5 12.5h-26.5c-2.042 0-4.045.167-6 .478zm220 0v2.5c0 15.164 12.337 27.5 27.5 27.5h2.5v34c0 60.654-49.346 110-110 110s-110-49.346-110-110v-34h2.5c15.164 0 27.5-12.336 27.5-27.5v-2.5zm-214 30h9v15.5h-9.5c-4.142 0-7.5 3.358-7.5 7.5s3.358 7.5 7.5 7.5h9.5v3.5c0 4.048.201 8.049.579 12h-9.579c-12.682 0-23-10.318-23-23s10.318-23 23-23zm21.5 129c-15.164 0-27.5-12.336-27.5-27.5v-40.978c1.955.312 3.958.478 6 .478h11.946c5.957 26.948 20.632 50.655 40.909 68zm21.57 84.201 48.261 40.496c2.017 1.693 4.271 2.992 6.669 3.879v33.424h-80v-94.852c5.496-1.368 11.235-2.11 17.142-2.139-.607 7.061 2.099 14.301 7.928 19.192zm68.47 28.081c-2.528 3.142-7.532 3.581-10.567.924l-48.261-40.496c-3.168-2.658-3.583-7.398-.924-10.566l11.891-14.172 59.751 50.137zm-148.54 37.218v-12c0-28.295 16.303-52.839 40-64.778v89.278h-27.5c-6.893 0-12.5-5.607-12.5-12.5zm150 12.5v-33.243c3.873-1.303 7.336-3.623 10.03-6.834l10.967-13.07 10.968 13.071c2.695 3.212 6.16 5.533 10.035 6.835v33.241zm102.283-89.288-48.262 40.496c-3.035 2.657-8.038 2.217-10.566-.924l-11.891-14.172 59.751-50.137 11.892 14.171c2.748 3.784 2.748 7.281-.924 10.566zm-45.283-15.524-36.001 30.209-35.999-30.207v-32.482c11.406 3.436 23.489 5.292 36 5.292s24.594-1.856 36-5.292zm104-84.688c0 15.164-12.337 27.5-27.5 27.5h-31.355c20.277-17.345 34.953-41.052 40.909-68h11.946c2.042 0 4.045-.167 6-.478zm-6-55.5h-9.579c.378-3.951.579-7.952.579-12v-3.5h9.5c4.143 0 7.5-3.358 7.5-7.5s-3.357-7.5-7.5-7.5h-9.5v-15.5h9c12.683 0 23 10.318 23 23s-10.317 23-23 23zm0-61h-26.5c-6.893 0-12.5-5.607-12.5-12.5v-2.5h45v15.478c-1.955-.311-3.958-.478-6-.478zm20-60h-206.847c-4.142 0-7.5 3.358-7.5 7.5s3.358 7.5 7.5 7.5h205.347c1.379 0 2.5 1.122 2.5 2.5v10c0 1.378-1.121 2.5-2.5 2.5h-305c-1.378 0-2.5-1.122-2.5-2.5v-10c0-1.378 1.122-2.5 2.5-2.5h64.653c4.142 0 7.5-3.358 7.5-7.5s-3.358-7.5-7.5-7.5h-57.653l-21.104-8.87c-6.315-2.654-10.396-8.796-10.396-15.646 0-6.985 4.191-13.171 10.678-15.761.162-.064.322-.135.479-.211l52.605-25.386c27.283-13.167 57.717-20.126 88.011-20.126h179.227c23.71 0 43 19.29 43 43s-19.29 43-43 43z"/></g></g></svg>