<svg id="Capa_1" enable-background="new 0 0 512 512" height="512" viewBox="0 0 512 512" width="512" xmlns="http://www.w3.org/2000/svg"><g><g><path d="m190 176.5h129v186h-129z" fill="#ffe077"/><path d="m289 176.5h30v186h-30z" fill="#ffd05b"/><path d="m367 504.5v-182h-38c-5.523 0-10 4.477-10 10v14c0 2.761-2.239 5-5 5h-25c-2.761 0-5-2.239-5-5v-14c0-5.523-4.477-10-10-10h-39c-5.523 0-10 4.477-10 10v14c0 2.761-2.239 5-5 5h-25c-2.761 0-5-2.239-5-5v-14c0-5.523-4.477-10-10-10h-35v182z" fill="#ffc263"/><path d="m329 146.5h-149c-2.761 0-5 2.239-5 5v20c0 2.761 2.239 5 5 5h149c2.761 0 5-2.239 5-5v-20c0-2.761-2.239-5-5-5z" fill="#ffc263"/><path d="m334 151.5v20c0 2.76-2.24 5-5 5h-30c2.76 0 5-2.24 5-5v-20c0-2.76-2.24-5-5-5h30c2.76 0 5 2.24 5 5z" fill="#ffaa5a"/><path d="m391.5 221.5h-29.5c-5.523 0-10 4.477-10 10v36c0 5.523 4.477 10 10 10h124c5.523 0 10-4.477 10-10v-36c0-5.523-4.477-10-10-10h-29.5c-5.523 0-10 4.477-10 10v11c0 2.761-2.239 5-5 5h-35c-2.761 0-5-2.239-5-5v-11c0-5.523-4.477-10-10-10z" fill="#e29a6c"/><path d="m496 231.5v36c0 5.52-4.48 10-10 10h-30c5.52 0 10-4.48 10-10v-36c0-5.44-4.34-9.86-9.75-10h29.75c5.52 0 10 4.48 10 10z" fill="#ce845c"/><path d="m471 504.5h-104v-227h114v217c0 5.523-4.477 10-10 10z" fill="#ffe077"/><path d="m481 277.5v217c0 5.52-4.48 10-10 10h-30c5.52 0 10-4.48 10-10v-217z" fill="#ffd05b"/><path d="m424 322.5c14.912 0 27 12.088 27 27v62c0 2.761-2.239 5-5 5h-44c-2.761 0-5-2.239-5-5v-62c0-14.912 12.088-27 27-27z" fill="#ffc263"/><path d="m481 474.5h-114v30h104c5.523 0 10-4.477 10-10z" fill="#e29a6c"/><path d="m481 474.5v20c0 5.52-4.48 10-10 10h-30c5.52 0 10-4.48 10-10v-20z" fill="#ce845c"/><path d="m120.5 221.5h29.5c5.523 0 10 4.477 10 10v36c0 5.523-4.477 10-10 10h-124c-5.523 0-10-4.477-10-10v-36c0-5.523 4.477-10 10-10h29.5c5.523 0 10 4.477 10 10v11c0 2.761 2.239 5 5 5h35c2.761 0 5-2.239 5-5v-11c0-5.523 4.477-10 10-10z" fill="#e29a6c"/><path d="m160 231.5v36c0 5.52-4.48 10-10 10h-30c5.52 0 10-4.48 10-10v-36c0-5.44-4.34-9.86-9.75-10h29.75c5.52 0 10 4.48 10 10z" fill="#ce845c"/><path d="m41 504.5h104v-227h-114v217c0 5.523 4.477 10 10 10z" fill="#ffe077"/><path d="m115 277.5h30v227h-30z" fill="#ffd05b"/><path d="m88 322.5c-14.912 0-27 12.088-27 27v62c0 2.761 2.239 5 5 5h44c2.761 0 5-2.239 5-5v-62c0-14.912-12.088-27-27-27z" fill="#ffc263"/><g fill="#ffe077"><path d="m322 381.5c-8.284 0-15 6.716-15 15v73c0 2.761 2.239 5 5 5h20c2.761 0 5-2.239 5-5v-73c0-8.284-6.716-15-15-15z"/><path d="m256 381.5c-8.284 0-15 6.716-15 15v73c0 2.761 2.239 5 5 5h20c2.761 0 5-2.239 5-5v-73c0-8.284-6.716-15-15-15z"/><path d="m190 381.5c-8.284 0-15 6.716-15 15v73c0 2.761 2.239 5 5 5h20c2.761 0 5-2.239 5-5v-73c0-8.284-6.716-15-15-15z"/></g><path d="m31 474.5h114v30h-104c-5.523 0-10-4.477-10-10z" fill="#e29a6c"/><path d="m115 474.5h30v30h-30z" fill="#ce845c"/><path d="m270.618 81.5h-32.236c-5.209 0-10.045 2.702-12.775 7.139l-35.607 57.861h129l-35.607-57.861c-2.73-4.437-7.566-7.139-12.775-7.139z" fill="#e29a6c"/><path d="m319 146.5h-30l-35.61-57.86c-2.73-4.44-7.56-7.14-12.77-7.14h30c5.21 0 10.04 2.7 12.77 7.14z" fill="#ce845c"/><path d="m314 42.5h-59.5v-30c0-2.761 2.239-5 5-5h54.5c2.761 0 5 2.239 5 5v25c0 2.761-2.239 5-5 5z" fill="#ff8d95"/><path d="m319 12.5v25c0 2.76-2.24 5-5 5h-30c2.76 0 5-2.24 5-5v-25c0-2.76-2.24-5-5-5h30c2.76 0 5 2.24 5 5z" fill="#ff7686"/><path d="m284 292.5h-59c-2.761 0-5-2.239-5-5v-31.5c0-19.054 15.446-34.5 34.5-34.5 19.054 0 34.5 15.446 34.5 34.5v31.5c0 2.761-2.239 5-5 5z" fill="#ffc263"/></g><g><path d="m486 214h-29.5c-9.649 0-17.5 7.851-17.5 17.5v8.5h-30v-8.5c0-9.649-7.851-17.5-17.5-17.5h-29.5c-9.649 0-17.5 7.851-17.5 17.5v36c0 8.798 6.534 16.081 15 17.3v30.2h-30.5c-.851 0-1.681.082-2.5.2v-131.2h2.5c6.893 0 12.5-5.607 12.5-12.5v-20c0-6.893-5.607-12.5-12.5-12.5h-5.809l-33.411-54.291c-4.063-6.605-11.406-10.709-19.162-10.709h-8.618v-24h52c6.893 0 12.5-5.607 12.5-12.5v-25c0-6.893-5.607-12.5-12.5-12.5h-54.5c-6.893 0-12.5 5.607-12.5 12.5v61.5h-8.618c-7.755 0-15.098 4.104-19.162 10.708l-33.411 54.292h-5.809c-6.893 0-12.5 5.607-12.5 12.5v20c0 6.893 5.607 12.5 12.5 12.5h2.5v38.331c0 4.143 3.358 7.5 7.5 7.5s7.5-3.357 7.5-7.5v-38.331h114v148.5 11.5h-20v-11.5c0-9.649-7.851-17.5-17.5-17.5h-39c-9.649 0-17.5 7.851-17.5 17.5v11.5h-20v-11.5-75.169c0-4.143-3.358-7.5-7.5-7.5s-7.5 3.357-7.5 7.5v57.869c-.819-.118-1.649-.2-2.5-.2h-27.5v-30.2c8.466-1.22 15-8.502 15-17.3v-36c0-9.649-7.851-17.5-17.5-17.5h-29.5c-9.649 0-17.5 7.851-17.5 17.5v8.5h-30v-8.5c0-9.649-7.851-17.5-17.5-17.5h-29.5c-9.649 0-17.5 7.851-17.5 17.5v36c0 8.798 6.534 16.081 15 17.3v209.7c0 9.649 7.851 17.5 17.5 17.5h326c4.143 0 7.5-3.357 7.5-7.5v-22.5h99v12.5c0 1.379-1.121 2.5-2.5 2.5h-69c-4.143 0-7.5 3.357-7.5 7.5s3.357 7.5 7.5 7.5h69c9.649 0 17.5-7.851 17.5-17.5v-209.7c8.466-1.22 15-8.502 15-17.3v-36c0-9.649-7.851-17.5-17.5-17.5zm-224-199h49.5v20h-49.5zm-30.005 77.569c1.354-2.202 3.802-3.569 6.387-3.569h32.236c2.585 0 5.032 1.367 6.387 3.569l28.573 46.431h-102.156zm-49.495 61.431h136.491c.005 0 .01.001.016.001.005 0 .01-.001.014-.001h7.479v15h-144zm-144 131h99v182h-99zm-15-53.5c0-1.379 1.122-2.5 2.5-2.5h29.5c1.378 0 2.5 1.121 2.5 2.5v11c0 6.893 5.607 12.5 12.5 12.5h35c6.893 0 12.5-5.607 12.5-12.5v-11c0-1.379 1.122-2.5 2.5-2.5h29.5c1.378 0 2.5 1.121 2.5 2.5v36c0 1.379-1.122 2.5-2.5 2.5h-124c-1.378 0-2.5-1.121-2.5-2.5zm15 263v-12.5h99v15h-96.5c-1.378 0-2.5-1.121-2.5-2.5zm114 2.5v-167h27.5c1.378 0 2.5 1.121 2.5 2.5v14c0 6.893 5.607 12.5 12.5 12.5h25c6.893 0 12.5-5.607 12.5-12.5v-14c0-1.379 1.122-2.5 2.5-2.5h39c1.379 0 2.5 1.121 2.5 2.5v14c0 6.893 5.607 12.5 12.5 12.5h25c6.893 0 12.5-5.607 12.5-12.5v-14c0-1.379 1.121-2.5 2.5-2.5h30.5v167zm222-30v-182h99v182zm114-199.5c0 1.379-1.121 2.5-2.5 2.5h-124c-1.379 0-2.5-1.121-2.5-2.5v-36c0-1.379 1.121-2.5 2.5-2.5h29.5c1.379 0 2.5 1.121 2.5 2.5v11c0 6.893 5.607 12.5 12.5 12.5h35c6.893 0 12.5-5.607 12.5-12.5v-11c0-1.379 1.121-2.5 2.5-2.5h29.5c1.379 0 2.5 1.121 2.5 2.5z"/><path d="m424 315c-19.023 0-34.5 15.477-34.5 34.5v62c0 6.893 5.607 12.5 12.5 12.5h44c6.893 0 12.5-5.607 12.5-12.5v-62c0-19.023-15.477-34.5-34.5-34.5zm19.5 94h-39v-59.5c0-10.752 8.748-19.5 19.5-19.5s19.5 8.748 19.5 19.5z"/><path d="m88 315c-19.023 0-34.5 15.477-34.5 34.5v62c0 6.893 5.607 12.5 12.5 12.5h44c6.893 0 12.5-5.607 12.5-12.5v-62c0-19.023-15.477-34.5-34.5-34.5zm19.5 94h-39v-59.5c0-10.752 8.748-19.5 19.5-19.5s19.5 8.748 19.5 19.5z"/><path d="m322 374c-12.406 0-22.5 10.094-22.5 22.5v73c0 6.893 5.607 12.5 12.5 12.5h20c6.893 0 12.5-5.607 12.5-12.5v-73c0-12.406-10.094-22.5-22.5-22.5zm7.5 93h-15v-70.5c0-4.136 3.364-7.5 7.5-7.5s7.5 3.364 7.5 7.5z"/><path d="m256 374c-12.407 0-22.5 10.094-22.5 22.5v73c0 6.893 5.607 12.5 12.5 12.5h20c6.893 0 12.5-5.607 12.5-12.5v-73c0-12.406-10.094-22.5-22.5-22.5zm7.5 93h-15v-70.5c0-4.136 3.364-7.5 7.5-7.5s7.5 3.364 7.5 7.5z"/><path d="m190 374c-12.407 0-22.5 10.094-22.5 22.5v73c0 6.893 5.607 12.5 12.5 12.5h20c6.893 0 12.5-5.607 12.5-12.5v-73c0-12.406-10.093-22.5-22.5-22.5zm7.5 93h-15v-70.5c0-4.136 3.364-7.5 7.5-7.5s7.5 3.364 7.5 7.5z"/><path d="m284 300c6.893 0 12.5-5.607 12.5-12.5v-31.5c0-23.159-18.841-42-42-42s-42 18.841-42 42v31.5c0 6.893 5.607 12.5 12.5 12.5zm-56.5-44c0-14.888 12.112-27 27-27s27 12.112 27 27v29h-54z"/></g></g></svg>