<svg id="Capa_1" enable-background="new 0 0 512 512" height="512" viewBox="0 0 512 512" width="512" xmlns="http://www.w3.org/2000/svg"><g><g><path d="m352.493 115.5c17.949 0 32.5 14.551 32.5 32.5 0 9.259-3.872 17.612-10.085 23.531-1.994 1.9-2.064 5.108-.115 7.053 6.493 6.481 10.512 15.437 10.512 25.336 0 19.778-16.034 35.812-35.812 35.812h-187c-19.778 0-35.812-16.034-35.812-35.812 0-9.899 4.019-18.855 10.512-25.336 1.949-1.946 1.879-5.154-.115-7.053-6.213-5.919-10.085-14.272-10.085-23.531 0-17.949 14.551-32.5 32.5-32.5z" fill="#736572"/><path d="m385.309 203.92c0 9.89-4.01 18.84-10.49 25.32s-15.44 10.49-25.33 10.49h-30c9.89 0 18.85-4.01 25.33-10.49s10.49-15.43 10.49-25.32c0-9.9-4.02-18.85-10.52-25.34-1.94-1.94-1.87-5.15.12-7.05 3.11-2.96 5.63-6.53 7.37-10.51 1.74-3.99 2.71-8.39 2.71-13.02 0-17.95-14.55-32.5-32.5-32.5h30c17.95 0 32.5 14.55 32.5 32.5 0 4.63-.97 9.03-2.71 13.02-1.74 3.98-4.26 7.55-7.37 10.51-1.99 1.9-2.06 5.11-.12 7.05 6.499 6.49 10.52 15.44 10.52 25.34z" fill="#615260"/><path d="m260.504 231.217 133.96 110.714c11.702 9.682 29.037 8.045 38.719-3.657 9.682-11.702 8.045-29.037-3.657-38.719l-131.78-108.848z" fill="#ffe077"/><path d="m439.499 320.75c0 6.18-2.07 12.39-6.32 17.52-9 10.89-24.63 13.06-36.18 5.52 2.27-1.48 4.36-3.32 6.18-5.52 4.25-5.13 6.32-11.34 6.32-17.52 0-7.91-3.4-15.76-9.97-21.2l-114.73-94.76 12.95-14.08 131.78 108.84c6.569 5.44 9.97 13.29 9.97 21.2z" fill="#ffd05b"/><path d="m251.493 231.217-133.96 110.714c-11.702 9.682-29.037 8.045-38.719-3.657-9.682-11.702-8.045-29.037 3.657-38.719l131.779-108.848z" fill="#ffe077"/><path d="m148.736 390.76 35.293-156.702c7.579-33.652 37.468-57.558 71.963-57.558 34.495 0 64.384 23.906 71.964 57.558l35.293 156.702c1.027 4.562-1.233 9.253-5.468 11.236-67.859 31.776-135.718 31.776-203.577 0-4.235-1.983-6.496-6.674-5.468-11.236z" fill="#cbb0f2"/><path d="m357.779 402c-6.7 3.13-13.39 5.96-20.09 8.47l-39.73-176.41c-3.79-16.82-13.16-31.22-25.89-41.4-8.95-7.16-19.57-12.24-31.08-14.62 4.86-1.01 9.88-1.54 15-1.54 17.25 0 33.35 5.98 46.08 16.16s22.1 24.58 25.89 41.4l35.29 156.7c1.03 4.56-1.23 9.25-5.47 11.24z" fill="#b696ef"/><path d="m333.493 404.5v72.5c0 15.188-12.312 27.5-27.5 27.5-15.188 0-27.5-12.312-27.5-27.5v-59.5z" fill="#ffe077"/><path d="m333.488 404.5v55h-30v-47.91z" fill="#ffd05b"/><path d="m178.493 404.5v72.5c0 15.188 12.312 27.5 27.5 27.5 15.188 0 27.5-12.312 27.5-27.5v-59.5z" fill="#ffe077"/><path d="m357.781 402c-67.86 31.77-135.72 31.77-203.58 0-4.23-1.99-6.49-6.68-5.47-11.24l7.4-32.87c66.57 30.58 133.15 30.58 199.72 0l7.4 32.87c1.03 4.56-1.23 9.25-5.47 11.24z" fill="#fcf1f2"/><path d="m357.779 402c-6.68 3.12-13.35 5.94-20.03 8.45l-9.4-41.67c9.17-3.05 18.33-6.68 27.5-10.89l7.4 32.87c1.03 4.56-1.23 9.25-5.47 11.24z" fill="#f4e5e0"/><path d="m275.993 257.5c-6.48 0-12.318 2.741-16.422 7.126-1.922 2.053-5.235 2.053-7.157 0-4.104-4.385-9.941-7.126-16.422-7.126-12.426 0-22.5 10.074-22.5 22.5 0 22.89 18.556 49.446 41.446 49.446h2.108c22.89 0 41.446-26.556 41.446-49.446.001-12.426-10.073-22.5-22.499-22.5z" fill="#b696ef"/><path d="m333.488 459.5v17.5c0 15.19-12.31 27.5-27.5 27.5-7.59 0-14.47-3.08-19.44-8.05-4.98-4.98-8.06-11.85-8.06-19.45v-17.5z" fill="#fcf1f2"/><path d="m333.488 459.5v17.5c0 15.19-12.31 27.5-27.5 27.5-5.53 0-10.69-1.64-15-4.46 7.53-4.89 12.5-13.39 12.5-23.04v-17.5z" fill="#f4e5e0"/><path d="m233.488 459.5v17.5c0 7.6-3.08 14.47-8.05 19.45-4.98 4.97-11.86 8.05-19.45 8.05-15.18 0-27.5-12.31-27.5-27.5v-17.5z" fill="#fcf1f2"/><path d="m255.993 224.5c51.363 0 93-41.637 93-93v-15h-186v15c0 51.363 41.637 93 93 93z" fill="#ffe077"/><path d="m348.988 116.5v15c0 51.36-41.63 93-93 93-5.1 0-10.11-.41-14.99-1.21 44.23-7.17 77.99-45.54 77.99-91.79v-15z" fill="#ffd05b"/><path d="m273.993 7.5h-36c-49.706 0-90 40.294-90 90v9c0 5.523 4.477 10 10 10h196c5.523 0 10-4.477 10-10v-9c0-49.706-40.295-90-90-90z" fill="#ff8d95"/><path d="m363.988 97.5v9c0 5.52-4.47 10-10 10h-30c5.53 0 10-4.48 10-10v-9c0-49.71-40.29-90-90-90h30c49.711 0 90 40.29 90 90z" fill="#ff7686"/></g><g><path d="m446.841 317.452c-.879-9.308-5.331-17.715-12.538-23.679l-4.596-3.796c-3.193-2.639-7.921-2.188-10.559 1.006-2.638 3.193-2.188 7.92 1.006 10.559l4.591 3.792c4.116 3.406 6.66 8.21 7.162 13.529.502 5.318-1.097 10.514-4.502 14.63-7.03 8.498-19.662 9.69-28.163 2.657l-49.891-41.234-14.078-62.506c-.092-.409-.194-.814-.292-1.22l58.172 48.049c3.175 2.626 7.909 2.2 10.559-1.006 2.638-3.194 2.187-7.921-1.006-10.559l-31.656-26.148c13.231-7.536 21.756-21.67 21.756-37.606 0-10.714-3.866-20.833-10.939-28.767 6.872-7.406 10.627-16.954 10.627-27.153 0-15.389-8.801-29.067-22-35.725.636-1.811 1-3.749 1-5.775v-9c0-53.762-43.738-97.5-97.5-97.5h-36c-53.762 0-97.5 43.738-97.5 97.5v9c0 2.021.362 3.954.995 5.761-13.215 6.633-21.995 20.26-21.995 35.739 0 10.199 3.755 19.747 10.627 27.153-7.073 7.935-10.939 18.053-10.939 28.767 0 15.976 8.514 30.094 21.753 37.618l-63.243 52.238c-7.203 5.959-11.654 14.367-12.533 23.675-.879 9.307 1.919 18.4 7.879 25.603 6.913 8.354 16.918 12.673 26.998 12.673 7.859 0 15.765-2.627 22.277-8.016l34.935-28.873-15.827 70.273c-1.792 7.956 2.248 16.231 9.604 19.676 6.648 3.113 13.305 5.924 19.97 8.443v59.77c0 19.299 15.701 35 35 35s35-15.701 35-35v-44.267c4.999.331 9.999.517 15 .517 5 0 10.001-.185 15-.517v44.267c0 19.299 15.701 35 35 35s35-15.701 35-35v-59.769c6.664-2.519 13.322-5.33 19.97-8.443 7.356-3.445 11.396-11.72 9.604-19.676l-15.83-70.285 34.946 28.883c6.517 5.391 14.42 8.018 22.282 8.018 10.078 0 20.085-4.32 26.997-12.673 5.958-7.203 8.756-16.296 7.877-25.603zm-99.663 36.078c-60.532 26.194-121.84 26.193-182.368.001l26.537-117.825c1.682-7.47 4.582-14.441 8.616-20.814 16.019 10.798 35.302 17.108 56.031 17.108 20.731 0 40.014-6.311 56.034-17.11 4.034 6.371 6.93 13.343 8.613 20.816zm22.318-169.637c5.359 5.349 8.31 12.461 8.31 20.028 0 12.464-7.971 23.239-19.645 26.959l-32.595-26.923c19.051-18.3 30.928-44.016 30.928-72.456v-7.7c.432-.062.862-.13 1.284-.224 11.454 2.462 19.716 12.633 19.716 24.424 0 6.906-2.755 13.334-7.758 18.101-2.416 2.301-3.824 5.539-3.863 8.883-.04 3.372 1.247 6.536 3.623 8.908zm-214.002-86.393c0-45.491 37.009-82.5 82.5-82.5h36c45.491 0 82.5 37.009 82.5 82.5v9c0 1.378-1.122 2.5-2.5 2.5h-135c-4.142 0-7.5 3.358-7.5 7.5s3.358 7.5 7.5 7.5h122.5v7.5c0 47.145-38.355 85.5-85.5 85.5s-85.5-38.355-85.5-85.5v-7.5h13.5c4.142 0 7.5-3.358 7.5-7.5s-3.358-7.5-7.5-7.5h-26c-1.378 0-2.5-1.122-2.5-2.5zm-21.312 106.42c0-7.566 2.951-14.679 8.311-20.028 2.375-2.372 3.662-5.535 3.623-8.908-.039-3.344-1.447-6.582-3.863-8.884-5.003-4.767-7.758-11.195-7.758-18.101 0-11.86 8.245-21.964 19.73-24.42.417.092.843.159 1.27.22v7.7c0 28.443 11.879 54.161 30.934 72.462l-32.592 26.921c-11.524-3.712-19.655-14.674-19.655-26.962zm-21.429 132.232c-8.496 7.03-21.128 5.837-28.159-2.66-7.023-8.137-5.764-21.477 2.655-28.154l89.753-74.135c-.097.402-.198.803-.289 1.207l-14.081 62.518zm93.241 160.848c-11.028 0-20-8.972-20-20v-10h40v10c0 11.028-8.972 20-20 20zm20-45h-40v-29.621c13.314 4.136 26.652 7.087 40 8.859zm80 45c-11.028 0-20-8.972-20-20v-10h40v10c0 11.028-8.972 20-20 20zm20-45h-40v-20.763c13.348-1.771 26.686-4.723 40-8.858zm28.608-56.795c-32.72 15.321-65.658 22.98-98.608 22.979-32.942-.001-65.896-7.661-98.607-22.979-1.029-.482-1.589-1.658-1.333-2.796l5.403-23.988c31.385 13.217 62.957 19.831 94.535 19.831 31.574 0 63.155-6.619 94.539-19.835l5.404 23.991c.255 1.139-.305 2.315-1.333 2.797z"/><path d="m275.994 250c-7.378 0-14.53 2.76-20 7.647-5.47-4.888-12.622-7.647-20-7.647-16.542 0-30 13.458-30 30 0 26.334 21.381 56.946 48.946 56.946h2.108c27.565 0 48.946-30.612 48.946-56.946 0-16.542-13.458-30-30-30zm-18.946 71.946h-2.108c-18.282 0-33.946-23.064-33.946-41.946 0-8.271 6.729-15 15-15 4.191 0 8.078 1.688 10.946 4.752 2.329 2.488 5.629 3.915 9.054 3.915s6.726-1.427 9.055-3.915c2.867-3.064 6.754-4.751 10.945-4.751 8.271 0 15 6.729 15 15 0 18.88-15.664 41.945-33.946 41.945z"/><path d="m292.994 166.5c4.142 0 7.5-3.358 7.5-7.5v-12c0-4.142-3.358-7.5-7.5-7.5s-7.5 3.358-7.5 7.5v12c0 4.142 3.358 7.5 7.5 7.5z"/><path d="m218.994 166.5c4.142 0 7.5-3.358 7.5-7.5v-12c0-4.142-3.358-7.5-7.5-7.5s-7.5 3.358-7.5 7.5v12c0 4.142 3.358 7.5 7.5 7.5z"/><path d="m223.117 178.984c-2.573 3.246-2.027 7.963 1.219 10.536 10.355 8.208 21.007 12.312 31.659 12.312s21.303-4.104 31.659-12.312c3.246-2.573 3.792-7.29 1.219-10.536-2.573-3.247-7.291-3.792-10.536-1.219-15.242 12.081-29.44 12.081-44.683 0-3.248-2.573-7.964-2.027-10.537 1.219z"/></g></g></svg>