<svg id="Capa_1" enable-background="new 0 0 512 512" height="512" viewBox="0 0 512 512" width="512" xmlns="http://www.w3.org/2000/svg"><g><g><path d="m292.332 32.474-17.507-12.258c-14.395-10.08-34.236-6.581-44.316 7.814-4.669 6.668-6.424 14.504-5.533 21.997.539 4.531-2.458 8.812-6.901 9.855-7.346 1.726-14.109 6.055-18.778 12.723-4.669 6.668-6.424 14.504-5.533 21.997.539 4.531-2.458 8.812-6.901 9.855-7.346 1.726-14.109 6.055-18.778 12.723-4.669 6.668-6.424 14.504-5.533 21.997.539 4.531-2.458 8.812-6.901 9.855-7.346 1.726-14.109 6.055-18.778 12.723-4.669 6.668-6.424 14.504-5.533 21.997.539 4.531-2.458 8.812-6.901 9.855-7.346 1.726-14.109 6.055-18.778 12.723-10.08 14.395-6.581 34.237 7.814 44.316l9.711 6.8 128.746-110.552z" fill="#736572"/><path d="m261.086 382.154-137.037-95.955c-8.345-5.843-10.373-17.345-4.53-25.691l142.243-203.144c15.857-22.647 38.836-39.337 65.276-47.412 16.546-5.054 34.497-2.208 48.669 7.715 5.21 3.648 6.476 10.829 2.828 16.04l-13.263 18.942c-1.957 2.795-2.211 6.443-.66 9.482l93.366 182.987c4.74 9.291.841 20.661-8.604 25.087l-48.294 22.631c-6.91 3.238-15.101 1.887-20.605-3.399l-70.949-68.139c-5.775-5.547-15.39-1.604-15.608 6.401l-3.813 139.847c-.4 14.691-16.98 23.037-29.019 14.608z" fill="#e29a6c"/><path d="m261.083 382.156-24.574-17.207c12.041 8.431 28.619.08 29.022-14.616l4.286-149.726c.225-8.009 9.841-11.945 15.615-6.401l26.873 29.754-2.774-2.663c-5.774-5.544-15.396-1.6-15.615 6.401l-3.811 139.841c-.403 14.697-16.981 23.049-29.022 14.617z" fill="#ce845c"/><path d="m449.375 270.205-48.294 22.631c-6.91 3.243-15.104 1.888-20.609-3.395l-12.585-12.083c2.91.133 5.869-.432 8.62-1.728l56.199-26.337c5.12-2.396 7.242-8.565 4.666-13.603l-97.338-190.769c-1.548-3.037-1.293-6.679.663-9.472l13.267-18.947c1.612-2.302 2.264-4.994 2.038-7.582 6.988 1.597 13.687 4.53 19.707 8.745 2.605 1.824 4.224 4.532 4.737 7.443.511 2.897-.084 5.996-1.908 8.601l-13.267 18.947c-1.956 2.793-2.211 6.435-.663 9.472l93.369 182.996c4.74 9.288.843 20.659-8.602 25.081z" fill="#ce845c"/><path d="m415.969 238.299 24.77 45.123c1.266 2.306.349 5.202-2.013 6.36l-14.654 7.184c-2.199 1.078-4.856.25-6.053-1.887l-25.671-45.815z" fill="#ffc263"/><path d="m438.733 289.78-14.659 7.18c-2.2 1.084-4.852.253-6.055-1.883l-4.515-8.057-12.757-22.751 23.451-10.985 12.536 22.841 4.008 7.299c1.268 2.303.35 5.201-2.009 6.356z" fill="#ffaa5a"/><path d="m452.239 222.516-101.66 47.979c-1.748.825-3.824.472-5.202-.883l-15.99-15.729c-1.373-1.35-.981-3.655.761-4.476l110.408-51.993c2.315-1.09 5.076-.087 6.15 2.236l7.751 16.758c1.063 2.301.073 5.027-2.218 6.108z" fill="#ffe077"/><path d="m196.573 370.759-58.175-40.734c-4.173-2.922-5.187-8.673-2.265-12.845l10.58-15.11 73.285 51.315-10.58 15.11c-2.921 4.172-8.672 5.186-12.845 2.264z" fill="#ecbd83"/><path d="m219.995 353.386-10.576 15.105c-2.925 4.178-8.677 5.192-12.846 2.272l-24.574-17.207c4.169 2.919 9.921 1.905 12.846-2.272l10.576-15.105z" fill="#eaad6c"/><path d="m74.83 502.819-18.888-13.225c-4.173-2.922-5.187-8.673-2.265-12.845l96.81-138.259 33.998 23.806-96.81 138.259c-2.921 4.172-8.673 5.186-12.845 2.264z" fill="#f6d190"/><path d="m119.036 471.846-49.108-34.386c-2.086-1.461-2.593-4.336-1.132-6.423l10.58-15.11c1.461-2.086 4.336-2.593 6.423-1.132l49.108 34.386c2.086 1.461 2.593 4.336 1.132 6.423l-10.58 15.11c-1.461 2.086-4.337 2.593-6.423 1.132z" fill="#ffe077"/><path d="m136.042 455.606-10.582 15.113c-1.457 2.081-4.34 2.589-6.428 1.126l-24.574-17.207c2.089 1.463 4.972.954 6.428-1.126l10.582-15.113c1.463-2.089.949-4.963-1.14-6.426l24.574 17.207c2.088 1.462 2.602 4.337 1.14 6.426z" fill="#ffd05b"/></g><g><path d="m464.644 241.743-7.02-13.759c4.388-3.373 6.038-9.472 3.626-14.689l-7.751-16.759c-1.365-2.95-3.799-5.187-6.854-6.297-2.707-.984-5.606-.974-8.277.004l-67.09-131.487c-.291-.569-.243-1.248.124-1.772l13.263-18.942c2.913-4.161 4.033-9.207 3.15-14.21s-3.66-9.362-7.821-12.275c-16.173-11.324-36.279-14.511-55.161-8.745-13.046 3.985-25.351 10.032-36.483 17.761l-9.237-6.468c-8.603-6.024-19.038-8.337-29.381-6.513s-19.357 7.566-25.381 16.169c-5.551 7.928-7.979 17.582-6.838 27.183.087.735-.447 1.5-1.168 1.669-9.414 2.211-17.655 7.795-23.206 15.722s-7.979 17.581-6.837 27.184c.087.735-.448 1.499-1.168 1.668-9.414 2.211-17.655 7.795-23.207 15.723-5.55 7.928-7.978 17.582-6.837 27.183.089.748-.436 1.497-1.168 1.669-9.413 2.211-17.655 7.795-23.206 15.722s-7.979 17.582-6.838 27.184c.089.748-.435 1.497-1.168 1.669-9.414 2.211-17.655 7.795-23.206 15.723-6.024 8.603-8.337 19.037-6.513 29.38s7.566 19.357 16.169 25.382l2.68 1.876c-6.248 11.436-3.026 26.029 7.893 33.675l16.522 11.569-6.279 8.967c-5.289 7.553-3.447 18.001 4.107 23.29l5.945 4.162-48.528 69.311-1.412-.989c-5.47-3.83-13.038-2.498-16.868 2.974l-10.581 15.111c-3.829 5.471-2.494 13.037 2.975 16.867l1.412.988-19.504 27.855c-5.289 7.553-3.447 18.001 4.107 23.29l18.887 13.225c7.29 5.316 18.278 3.358 23.291-4.106l19.504-27.855 1.412.988c2.11 1.478 4.531 2.186 6.93 2.186 3.821 0 7.585-1.8 9.938-5.16l.989-1.412 35.41 24.794c10.946 7.665 23.507 11.343 35.954 11.343 19.825 0 39.354-9.339 51.563-26.775l53.328-76.16c11.929-17.037 18.467-37.033 18.907-57.826l.681-32.18c.314-14.845 4.268-29.209 11.487-42.033l.196.193c2.309 2.271 5.393 3.469 8.513 3.469 1.749 0 3.508-.376 5.15-1.15l2.15-1.015 19.35 18.585c4.912 4.718 11.443 7.205 18.036 7.205 3.722 0 7.464-.793 10.946-2.424l6.105-2.861 1.109 1.979c2.211 3.945 6.323 6.191 10.576 6.191 1.792 0 3.61-.399 5.32-1.237l14.654-7.184c2.956-1.449 5.222-4.08 6.216-7.22.994-3.139.655-6.596-.93-9.483l-.157-.286 5.4-2.53c6.425-3.011 11.231-8.365 13.533-15.077 2.301-6.712 1.792-13.889-1.433-20.209zm-321.956 82.171c-.778-.545-.968-1.622-.423-2.4l6.279-8.967 60.998 42.711-6.279 8.967c-.746.848-1.408.968-2.4.423zm9.629 25.053 21.711 15.202-48.53 69.308-21.712-15.202zm-70.797 147.317c-.746.849-1.409.969-2.4.423l-18.888-13.225c-.849-.746-.966-1.409-.423-2.4l19.504-27.855 21.711 15.202zm39.44-32.206-44.377-31.073 7.267-10.378 44.377 31.072zm192.464-147.564-.681 32.18c-.376 17.814-5.977 34.945-16.197 49.541l-53.328 76.16c-7.329 10.467-18.296 17.454-30.88 19.673-12.585 2.218-25.279-.596-35.746-7.925l-35.41-24.794.989-1.412c3.83-5.471 2.497-13.037-2.974-16.868l-1.412-.988 48.53-69.308 5.945 4.162c7.29 5.316 18.278 3.358 23.29-4.106l10.58-15.11c2.376-3.393 1.551-8.07-1.842-10.445l-95.95-67.185c-4.889-3.276-6.163-10.495-2.688-15.246l122.168-174.474c2.376-3.393 1.551-8.069-1.842-10.445-3.392-2.375-8.069-1.551-10.445 1.842l-115.221 164.552-2.545-1.782c-5.321-3.726-8.873-9.301-10.001-15.699-1.128-6.397.303-12.851 4.029-18.172 3.433-4.904 8.53-8.357 14.349-9.724 8.196-1.925 13.627-9.681 12.633-18.042-.706-5.936.796-11.906 4.229-16.809 3.433-4.904 8.53-8.357 14.349-9.724 8.196-1.926 13.627-9.682 12.633-18.042-.706-5.936.796-11.905 4.229-16.809 3.434-4.903 8.53-8.357 14.349-9.724 8.197-1.925 13.628-9.682 12.633-18.041-.706-5.937.796-11.907 4.229-16.81 3.433-4.904 8.53-8.357 14.349-9.724 8.196-1.925 13.627-9.681 12.633-18.042-.706-5.936.796-11.905 4.229-16.809 3.726-5.321 9.301-8.873 15.698-10.001 6.397-1.126 12.852.303 18.173 4.029l5.517 3.863c-7.643 6.775-14.528 14.423-20.422 22.841-2.376 3.393-1.551 8.07 1.842 10.445s8.069 1.551 10.445-1.842c14.825-21.172 36.603-36.991 61.323-44.541 14.44-4.41 29.811-1.972 42.176 6.686 1.814 1.27 2.257 3.78.987 5.595l-13.263 18.941c-3.557 5.08-4.016 11.668-1.198 17.193l66.848 131.014-87.355 41.137-22.701-21.803c-4.844-4.652-11.714-5.959-17.929-3.412-6.215 2.549-10.189 8.302-10.372 15.017l-3.812 139.846c-.112 4.095-2.363 7.638-6.021 9.48-3.658 1.84-7.845 1.538-11.2-.811l-12.418-8.695c-3.392-2.376-8.07-1.552-10.445 1.842-2.376 3.393-1.551 8.07 1.842 10.445l12.418 8.695c7.85 5.499 18.033 6.21 26.547 1.922 8.542-4.3 14.01-12.909 14.271-22.469l3.812-139.846c-.049-1.462 1.926-2.268 2.917-1.196l19.252 18.49c-1.215 1.401-2.059 3.113-2.379 4.992-.563 3.309.53 6.689 2.922 9.041l4.775 4.697c-9.732 15.83-15.068 33.866-15.463 52.554zm26.051-63.182 101.631-47.86 5.327 11.518-97.246 45.896zm58.41 32.746c-4.07 1.907-8.985 1.097-12.227-2.017l-15.221-14.618 19.448-9.178 13.12 23.415zm25.327 2.982-19.731-35.213 9.877-4.661 19.337 35.225zm28.675-31.974c-.971 2.831-2.998 5.091-5.709 6.361l-6.268 2.937-12.962-23.612 17.232-8.133 7.103 13.921c1.361 2.666 1.576 5.694.604 8.526z"/><path d="m331.396 133.203c3.354 2.359 8.055 1.575 10.445-1.842l7.935-11.333c2.376-3.393 1.551-8.069-1.842-10.445s-8.07-1.551-10.445 1.842l-7.935 11.333c-2.375 3.393-1.551 8.069 1.842 10.445z"/></g></g></svg>