<svg id="Capa_1" enable-background="new 0 0 512 512" height="512" viewBox="0 0 512 512" width="512" xmlns="http://www.w3.org/2000/svg"><g><g><path d="m37.5 129.814 437 62.359v127.982l-437 62.359z" fill="#ce845c"/><path d="m499.194 341.5h-19.389c-2.93 0-5.305-2.375-5.305-5.305v-160.39c0-2.93 2.375-5.305 5.305-5.305h19.389c2.93 0 5.305 2.375 5.305 5.305v160.389c.001 2.931-2.374 5.306-5.305 5.306z" fill="#e29a6c"/><path d="m32.5 421.5h-20c-2.761 0-5-2.239-5-5v-320c0-2.761 2.239-5 5-5h20c2.761 0 5 2.239 5 5v320c0 2.761-2.239 5-5 5z" fill="#e29a6c"/><path d="m431.5 154.5h-49c-5.523 0-10 4.477-10 10v183c0 5.523 4.477 10 10 10h49c5.523 0 10-4.477 10-10v-183c0-5.523-4.477-10-10-10z" fill="#00ddf9"/><path d="m441.5 164.5v183c0 5.52-4.48 10-10 10h-30c5.52 0 10-4.48 10-10v-183c0-5.52-4.48-10-10-10h30c5.52 0 10 4.48 10 10z" fill="#00c7f8"/><path d="m330.5 138.5h-49c-5.523 0-10 4.477-10 10v215c0 5.523 4.477 10 10 10h49c5.523 0 10-4.477 10-10v-215c0-5.523-4.477-10-10-10z" fill="#cbb0f2"/><path d="m340.5 148.5v215c0 5.52-4.48 10-10 10h-30c5.52 0 10-4.48 10-10v-215c0-5.52-4.48-10-10-10h30c5.52 0 10 4.48 10 10z" fill="#b696ef"/><path d="m230.5 388.5h-49c-5.523 0-10-4.477-10-10v-246c0-5.523 4.477-10 10-10h49c5.523 0 10 4.477 10 10v246c0 5.523-4.477 10-10 10z" fill="#ffe077"/><path d="m240.5 132.5v246c0 5.52-4.48 10-10 10h-30c5.52 0 10-4.48 10-10v-246c0-5.52-4.48-10-10-10h30c5.52 0 10 4.48 10 10z" fill="#ffd05b"/><path d="m414.47 424.541-339.24 30.372c-10.975.983-18.991 10.806-17.751 21.756 1.24 10.949 11.249 18.732 22.166 17.236l337.443-46.248z" fill="#f6d190"/><path d="m434.514 460.583 31.522-3.569c14.508-1.643 24.937-14.735 23.294-29.243-1.643-14.508-14.735-24.937-29.243-23.294l-31.522 3.569c-14.508 1.643-24.937 14.735-23.294 29.243 1.643 14.508 14.735 24.937 29.243 23.294z" fill="#fcf1f2"/><path d="m466.04 457.01-29.91 3.35c14.51-1.64 24.94-14.74 23.3-29.24-1.54-13.5-12.97-23.47-26.25-23.47-.47 0-.93.01-1.4.04l28.31-3.21c1.01-.12 2.02-.17 3.02-.17 13.26 0 24.69 9.96 26.22 23.46 1.64 14.51-8.79 27.6-23.29 29.24z" fill="#f4e5e0"/><path d="m129.5 107.5h-49c-5.523 0-10 4.477-10 10v278c0 5.523 4.477 10 10 10h49c5.523 0 10-4.477 10-10v-278c0-5.523-4.477-10-10-10z" fill="#baf39a"/><path d="m139.5 117.5v278c0 5.52-4.48 10-10 10h-30c5.52 0 10-4.48 10-10v-278c0-5.52-4.48-10-10-10h30c5.52 0 10 4.48 10 10z" fill="#9ae59c"/><path d="m132.382 38.145 339.24 30.372c10.975.983 18.991 10.806 17.751 21.756-1.24 10.949-11.249 18.732-22.166 17.236l-337.442-46.248z" fill="#f6d190"/><path d="m489.37 90.27c-1.14 10.05-9.66 17.42-19.48 17.42-.88 0-1.78-.06-2.68-.18l-25.62-3.51c9.09-.79 16.71-7.88 17.78-17.34 1.01-8.89-4.08-17.03-11.9-20.3l24.15 2.16c10.98.98 18.99 10.8 17.75 21.75z" fill="#ecbd83"/><path d="m112.338 74.186-31.522-3.569c-14.507-1.642-24.936-14.735-23.294-29.242 1.643-14.508 14.735-24.937 29.243-23.294l31.522 3.569c14.508 1.643 24.937 14.735 23.294 29.243-1.643 14.507-14.735 24.936-29.243 23.293z" fill="#fcf1f2"/></g><g><path d="m504.5 289.513c4.142 0 7.5-3.357 7.5-7.5v-106.513c0-6.893-5.607-12.5-12.5-12.5h-20c-6.893 0-12.5 5.607-12.5 12.5v8.027l-18-2.568v-16.459c0-9.649-7.851-17.5-17.5-17.5h-49c-9.649 0-17.5 7.851-17.5 17.5v4.472l-17-2.426v-18.046c0-9.649-7.851-17.5-17.5-17.5h-49c-9.649 0-17.5 7.851-17.5 17.5v6.059l-16-2.283v-19.776c0-9.649-7.851-17.5-17.5-17.5h-49c-9.649 0-17.5 7.851-17.5 17.5v7.79l-17-2.426v-20.364c0-9.649-7.851-17.5-17.5-17.5h-49c-9.649 0-17.5 7.851-17.5 17.5v8.377l-18-2.569v-26.808c0-6.893-5.607-12.5-12.5-12.5h-20c-6.893 0-12.5 5.607-12.5 12.5v320c0 6.893 5.607 12.5 12.5 12.5h20c6.893 0 12.5-5.607 12.5-12.5v-27.481l18-2.568v9.049c0 9.649 7.851 17.5 17.5 17.5h49c9.649 0 17.5-7.851 17.5-17.5v-21.036l17-2.426v6.462c0 9.649 7.851 17.5 17.5 17.5h49c9.649 0 17.5-7.851 17.5-17.5v-18.448l16-2.283v5.732c0 9.649 7.851 17.5 17.5 17.5h49c9.649 0 17.5-7.851 17.5-17.5v-17.718l17-2.426v4.144c0 9.649 7.851 17.5 17.5 17.5h49c9.649 0 17.5-7.851 17.5-17.5v-16.13l18-2.569v7.699c0 6.893 5.607 12.5 12.5 12.5h20c6.893 0 12.5-5.607 12.5-12.5v-19.487c0-4.143-3.358-7.5-7.5-7.5s-7.5 3.357-7.5 7.5v16.986h-15v-156h15v104.013c0 4.142 3.358 7.5 7.5 7.5zm-474.5 124.487h-15v-315h15zm102-18.5c0 1.379-1.122 2.5-2.5 2.5h-49c-1.378 0-2.5-1.121-2.5-2.5v-200c0-4.143-3.358-7.5-7.5-7.5s-7.5 3.357-7.5 7.5v175.799l-18 2.568v-235.407l18 2.569v19.471c0 4.143 3.358 7.5 7.5 7.5s7.5-3.357 7.5-7.5v-43c0-1.379 1.122-2.5 2.5-2.5h49c1.378 0 2.5 1.121 2.5 2.5zm15-36.188v-206.296l17 2.426v201.444zm86 19.188c0 1.379-1.122 2.5-2.5 2.5h-49c-1.378 0-2.5-1.121-2.5-2.5v-246c0-1.379 1.122-2.5 2.5-2.5h49c1.378 0 2.5 1.121 2.5 2.5zm15-33.601v-177.471l16 2.283v172.905zm85 18.601c0 1.379-1.122 2.5-2.5 2.5h-49c-1.378 0-2.5-1.121-2.5-2.5v-215c0-1.379 1.122-2.5 2.5-2.5h49c1.378 0 2.5 1.121 2.5 2.5zm15-32.87v-148.932l17 2.426v144.08zm86 16.87c0 1.379-1.122 2.5-2.5 2.5h-49c-1.378 0-2.5-1.121-2.5-2.5v-183c0-1.379 1.122-2.5 2.5-2.5h49c1.378 0 2.5 1.121 2.5 2.5zm15-31.283v-120.107l18 2.568v114.97z"/><circle cx="407" cy="189" r="10"/><circle cx="407" cy="323" r="10"/><circle cx="306" cy="173" r="10"/><circle cx="306" cy="339" r="10"/><path d="m484.206 404.202c-7.089-5.648-15.955-8.197-24.962-7.177l-31.522 3.569c-9.007 1.02-17.078 5.486-22.726 12.576-1.257 1.578-2.352 3.248-3.297 4.984l-327.138 29.29c-7.336.656-13.942 4.161-18.599 9.868-9.615 11.281-7.528 29.717 4.366 38.562 4.815 3.744 10.595 5.718 16.584 5.718 1.243 0 2.496-.085 3.75-.257l325.405-44.598c1.309 1.481 2.749 2.864 4.327 4.121 6.068 4.834 13.434 7.397 21.078 7.396 1.288 0 35.406-3.789 35.406-3.789 9.007-1.02 17.078-5.485 22.726-12.576 5.647-7.09 8.196-15.955 7.176-24.962-1.018-9.006-5.484-17.078-12.574-22.725zm-405.58 82.272c-10.523 1.834-18.087-11.656-11.042-19.679 2.082-2.552 5.034-4.118 8.314-4.412l321.715-28.803c-.03 1.509.032 3.028.205 4.552s.452 3.019.818 4.483zm399.247-43.93c-3.151 3.956-7.655 6.448-12.681 7.018l-31.522 3.569c-5.023.569-9.972-.853-13.929-4.005-8.092-6.178-9.519-18.779-3.013-26.609 3.151-3.956 7.655-6.448 12.681-7.018l31.522-3.569c10.049-1.365 20.028 6.552 20.947 16.686.568 5.025-.854 9.972-4.005 13.928z"/><circle cx="206" cy="157" r="10"/><circle cx="206" cy="355" r="10"/><circle cx="105" cy="141" r="10"/><circle cx="105" cy="371" r="10"/><path d="m79.973 78.069s34.118 3.789 35.406 3.789c7.643 0 15.011-2.563 21.078-7.396 1.578-1.257 3.018-2.64 4.327-4.121l325.405 44.598c14.568 2.347 29.316-9.07 30.637-23.823 1.984-14.689-9.746-29.065-24.534-30.069l-327.162-29.291c-5.116-9.406-14.576-16.265-25.999-17.559l-31.521-3.568c-9.009-1.024-17.873 1.528-24.963 7.176s-11.557 13.72-12.576 22.727c-1.021 9.007 1.528 17.872 7.176 24.962s13.718 11.556 22.726 12.575zm390.98-2.083c3.28.294 6.233 1.861 8.315 4.413 4.297 5.043 3.364 13.283-1.953 17.237-2.599 2.021-5.827 2.892-9.089 2.441l-320.011-43.858c.366-1.464.645-2.958.818-4.483.174-1.533.232-3.052.2-4.553zm-405.978-33.767c.937-10.138 10.855-18.04 20.947-16.686l31.521 3.568c10.375 1.176 17.86 10.572 16.686 20.947-.937 10.138-10.855 18.038-20.947 16.686l-31.522-3.569c-10.137-.936-18.04-10.856-16.685-20.946z"/></g></g></svg>