<svg id="Capa_1" enable-background="new 0 0 512 512" height="512" viewBox="0 0 512 512" width="512" xmlns="http://www.w3.org/2000/svg"><g><g><path d="m199.5 353.5h66c8.284 0 15-6.716 15-15v-25h-73.895z" fill="#cbb0f2"/><path d="m280.5 313.5v25c0 8.28-6.72 15-15 15h-30c8.28 0 15-6.72 15-15v-25z" fill="#b696ef"/><path d="m231.217 277.344h208.283v21.156 10c0 8.284-6.716 15-15 15h-213.232z" fill="#9ae59c"/><path d="m439.5 277.34v31.16c0 8.28-6.72 15-15 15h-30c8.28 0 15-6.72 15-15v-31.16z" fill="#82d182"/><path d="m459.5 206.5h-10c-5.52 0-10-4.48-10-10v-103c0-5.52-4.48-10-10-10h-25c-5.52 0-10 4.48-10 10v26c0 2.76-2.24 5-5 5h-42c-2.76 0-5-2.24-5-5v-26c0-5.52-4.48-10-10-10h-25c-5.52 0-10 4.48-10 10v104c0 5.52-4.48 10-10 10h-164c-8.28 0-15 6.72-15 15v56c0 8.28 6.72 15 15 15h24.83c7.65 0 12.46 8.24 8.71 14.91l-59.24 105.18c-3.76 6.67 1.06 14.91 8.71 14.91h58.02c7.22 0 13.88-3.89 17.42-10.17l64.68-114.66c3.55-6.28 10.21-10.17 17.42-10.17h200.45c5.52 0 10-4.48 10-10v-62c0-8.28-6.72-15-15-15zm-65-10c0 5.52-4.48 10-10 10h-32c-5.52 0-10-4.48-10-10v-32c0-5.52 4.48-10 10-10h32c5.52 0 10 4.48 10 10z" fill="#baf39a"/><g fill="#9ae59c"><path d="m264.05 293.5c-7.21 0-13.87 3.89-17.42 10.17l-64.68 114.66c-3.54 6.28-10.2 10.17-17.42 10.17h-30c7.22 0 13.88-3.89 17.42-10.17l64.68-114.66c3.55-6.28 10.21-10.17 17.42-10.17z"/><path d="m474.5 221.5v62c0 5.52-4.48 10-10 10h-30c5.52 0 10-4.48 10-10v-62c0-8.28-6.72-15-15-15h-10c-5.52 0-10-4.48-10-10v-103c0-4.66-3.19-8.57-7.5-9.68.8-.21 1.64-.32 2.5-.32h25c5.52 0 10 4.48 10 10v103c0 5.52 4.48 10 10 10h10c8.28 0 15 6.72 15 15z"/><path d="m193.13 398.5-11.181 19.825c-3.546 6.286-10.203 10.175-17.42 10.175h-58.017c-7.651 0-12.468-8.242-8.713-14.908l8.501-15.092z"/></g><path d="m193.13 398.5-11.18 19.83c-3.55 6.28-10.2 10.17-17.42 10.17h-30c7.22 0 13.88-3.89 17.42-10.17l11.19-19.83z" fill="#82d182"/><path d="m54.5 177.5h203c5.523 0 10-4.477 10-10v-74c0-5.523-4.477-10-10-10h-203c-25.957 0-47 21.043-47 47 0 25.957 21.043 47 47 47z" fill="#ffe077"/><path d="m108.5 265h-20c-5.523 0-10-4.477-10-10v-10c0-5.523 4.477-10 10-10h20z" fill="#9ae59c"/><path d="m494.5 265h-20v-30h20c5.523 0 10 4.477 10 10v10c0 5.523-4.477 10-10 10z" fill="#b696ef"/><path d="m267.5 115.5h30v30h-30z" fill="#cbb0f2"/><path d="m237.5 177.5h20c5.523 0 10-4.477 10-10v-74c0-5.523-4.477-10-10-10h-20z" fill="#fcf1f2"/></g><g><path d="m384.5 147h-32c-9.649 0-17.5 7.851-17.5 17.5v32c0 9.649 7.851 17.5 17.5 17.5h32c9.649 0 17.5-7.851 17.5-17.5v-32c0-9.649-7.851-17.5-17.5-17.5zm2.5 49.5c0 1.379-1.121 2.5-2.5 2.5h-32c-1.379 0-2.5-1.121-2.5-2.5v-32c0-1.379 1.121-2.5 2.5-2.5h32c1.379 0 2.5 1.121 2.5 2.5z"/><path d="m494.5 227.5h-12.5v-6c0-12.406-10.094-22.5-22.5-22.5h-10c-1.379 0-2.5-1.121-2.5-2.5v-103c0-9.649-7.851-17.5-17.5-17.5h-25c-9.649 0-17.5 7.851-17.5 17.5v23.5h-37v-23.5c0-9.649-7.851-17.5-17.5-17.5h-25c-9.649 0-17.5 7.851-17.5 17.5v14.5h-15v-14.5c0-9.649-7.851-17.5-17.5-17.5h-203c-30.052 0-54.5 24.448-54.5 54.5s24.448 54.5 54.5 54.5c4.143 0 7.5-3.357 7.5-7.5s-3.357-7.5-7.5-7.5c-21.78 0-39.5-17.72-39.5-39.5s17.72-39.5 39.5-39.5h175.5v79h-140.5c-4.143 0-7.5 3.357-7.5 7.5s3.357 7.5 7.5 7.5h168c9.649 0 17.5-7.851 17.5-17.5v-14.5h15v44.5c0 1.379-1.121 2.5-2.5 2.5h-164c-12.406 0-22.5 10.094-22.5 22.5v5h-12.5c-9.649 0-17.5 7.851-17.5 17.5v10c0 9.649 7.851 17.5 17.5 17.5h12.5v6c0 12.406 10.094 22.5 22.5 22.5h24.826c2.21.315 2.99 1.647 2.178 3.727l-59.239 105.185c-3.086 5.479-3.034 11.989.139 17.418s8.82 8.67 15.108 8.67h58.021c9.907 0 19.085-5.36 23.951-13.987l34.42-61.013h42.596c12.406 0 22.5-10.094 22.5-22.5v-7.5h136.5c12.406 0 22.5-10.094 22.5-22.5v-7.5h17.5c9.649 0 17.5-7.851 17.5-17.5v-11h12.5c9.649 0 17.5-7.851 17.5-17.5v-10c0-9.649-7.851-17.5-17.5-17.5zm-234.5-60c0 1.379-1.121 2.5-2.5 2.5h-12.5v-79h12.5c1.379 0 2.5 1.121 2.5 2.5zm15-29.5v-15h15v15zm-186.5 119.5c-1.379 0-2.5-1.121-2.5-2.5v-10c0-1.379 1.121-2.5 2.5-2.5h12.5v15zm76.033 163.5h-58.021c-2.21-.315-2.99-1.647-2.178-3.727l6.349-11.273h69.612l-4.876 8.643c-2.211 3.921-6.383 6.357-10.886 6.357zm108.467-82.5c0 4.136-3.364 7.5-7.5 7.5h-34.133l8.462-15h33.171zm194-55c0 1.379-1.121 2.5-2.5 2.5h-70c-4.143 0-7.5 3.357-7.5 7.5s3.357 7.5 7.5 7.5h37.5v7.5c0 4.136-3.364 7.5-7.5 7.5h-176.209l4.875-8.642c2.213-3.922 6.384-6.358 10.887-6.358h95.447c4.143 0 7.5-3.357 7.5-7.5s-3.357-7.5-7.5-7.5h-95.447c-9.906 0-19.084 5.359-23.951 13.987l-51.344 91.013h-69.627l44.442-78.912c3.086-5.479 3.034-11.989-.139-17.418-3.172-5.429-8.82-8.67-15.108-8.67h-24.826c-4.136 0-7.5-3.364-7.5-7.5v-56c0-4.136 3.364-7.5 7.5-7.5h164c9.649 0 17.5-7.851 17.5-17.5v-104c0-1.379 1.121-2.5 2.5-2.5h25c1.379 0 2.5 1.121 2.5 2.5v26c0 6.893 5.607 12.5 12.5 12.5h42c6.893 0 12.5-5.607 12.5-12.5v-26c0-1.379 1.121-2.5 2.5-2.5h25c1.379 0 2.5 1.121 2.5 2.5v103c0 9.649 7.851 17.5 17.5 17.5h10c4.136 0 7.5 3.364 7.5 7.5zm30-28.5c0 1.379-1.121 2.5-2.5 2.5h-12.5v-15h12.5c1.379 0 2.5 1.121 2.5 2.5z"/></g></g></svg>