<svg id="Capa_1" enable-background="new 0 0 512 512" height="512" viewBox="0 0 512 512" width="512" xmlns="http://www.w3.org/2000/svg"><g><g><path d="m439.5 163.5h-352c-2.761 0-5-2.239-5-5v-25h362v25c0 2.761-2.239 5-5 5z" fill="#ce845c"/><path d="m444.5 133.5v25c0 2.76-2.24 5-5 5h-30c2.76 0 5-2.24 5-5v-25z" fill="#be785a"/><path d="m241 123.5h30v285h-30z" fill="#e29a6c"/><path d="m454.5 133.5h-397c-2.761 0-5-2.239-5-5v-20c0-2.761 2.239-5 5-5h397c2.761 0 5 2.239 5 5v20c0 2.761-2.239 5-5 5z" fill="#fcf1f2"/><path d="m459.5 108.5v20c0 2.76-2.24 5-5 5h-30c2.76 0 5-2.24 5-5v-20c0-2.76-2.24-5-5-5h30c2.76 0 5 2.24 5 5z" fill="#f4e5e0"/><path d="m78.968 432.772c7.601-33.369 37.456-58.272 73.128-58.272h58c35.378 0 65.035 24.496 72.936 57.452z" fill="#ffc263"/><path d="m234.968 432.772c7.601-33.369 37.456-58.272 73.128-58.272h58c35.378 0 65.035 24.496 72.936 57.452z" fill="#ffe077"/><path d="m438.39 429.5h-30c-8.75-31.71-37.8-55-72.29-55h30c34.49 0 63.54 23.29 72.29 55z" fill="#ffd05b"/><path d="m271.013 7.5h-30.026c-8.834 0-17.509 2.34-25.145 6.783l-153.342 89.217h387l-153.342-89.217c-7.636-4.443-16.312-6.783-25.145-6.783z" fill="#ff8d95"/><path d="m449.5 103.5h-30l-153.34-89.22c-7.64-4.44-16.31-6.78-25.15-6.78h30c8.84 0 17.51 2.34 25.15 6.78z" fill="#ff7686"/><path d="m364 374.5h-54l-8.905-48.09c-.569-3.074 1.79-5.91 4.916-5.91h61.978c3.126 0 5.486 2.837 4.916 5.91z" fill="#cbb0f2"/><path d="m372.91 326.41-8.91 48.09h-30l8.91-48.09c.56-3.07-1.79-5.91-4.92-5.91h30c3.13 0 5.48 2.84 4.92 5.91z" fill="#b696ef"/><path d="m181 320.5c-14.912 0-27 12.088-27 27 0 14.912 12.088 27 27 27 14.912 0 27-12.088 27-27 0-14.912-12.088-27-27-27z" fill="#f2d1ff"/><path d="m474.5 459.5h-437c-2.761 0-5-2.239-5-5v-20c0-2.761 2.239-5 5-5h437c2.761 0 5 2.239 5 5v20c0 2.761-2.239 5-5 5z" fill="#fcf1f2"/><path d="m479.5 434.5v20c0 2.76-2.24 5-5 5h-30c2.76 0 5-2.24 5-5v-20c0-2.76-2.24-5-5-5h30c2.76 0 5 2.24 5 5z" fill="#f4e5e0"/><path d="m462.68 459.5-5.19 28.58c-1.73 9.51-10.02 16.42-19.68 16.42h-363.62c-9.66 0-17.95-6.91-19.68-16.42l-5.19-28.58z" fill="#9ae59c"/><path d="m462.68 459.5-5.19 28.58c-1.73 9.51-10.02 16.42-19.68 16.42h-30c9.66 0 17.95-6.91 19.68-16.42l5.19-28.58z" fill="#82d182"/></g><path d="m474.5 422h-30.62c-10.779-30.454-38.807-51.998-70.917-54.709l7.317-39.514c1.566-7.426-4.705-14.964-12.291-14.776h-8.489v-17.5c0-6.893-5.607-12.5-12.5-12.5h-20c-6.893 0-12.5 5.607-12.5 12.5v17.499h-8.489c-7.585-.188-13.857 7.351-12.291 14.775l7.319 39.524c-7.787.653-15.351 2.385-22.539 5.15v-201.449h161c6.893 0 12.5-5.607 12.5-12.5v-17.5h2.5c6.893 0 12.5-5.607 12.5-12.5v-20c0-6.893-5.607-12.5-12.5-12.5h-2.978l-151.593-88.2c-8.769-5.103-18.769-7.8-28.916-7.8h-30.025c-10.147 0-20.147 2.697-28.917 7.8l-151.594 88.2h-2.977c-6.893 0-12.5 5.607-12.5 12.5v20c0 6.893 5.607 12.5 12.5 12.5h17.5v17.5c0 6.893 5.607 12.5 12.5 12.5h146v199.412c-7.547-2.233-15.424-3.412-23.404-3.412h-.656c3.818-5.552 6.06-12.268 6.06-19.5 0-19.023-15.477-34.5-34.5-34.5s-34.5 15.477-34.5 34.5c0 7.232 2.241 13.948 6.06 19.5h-.464c-34.956 0-66.241 22.382-77.784 55h-36.812c-6.893 0-12.5 5.607-12.5 12.5v20c0 6.893 5.607 12.5 12.5 12.5h5.559l4.071 22.423c2.382 13.082 13.762 22.577 27.06 22.577h363.621c13.298 0 24.678-9.495 27.059-22.58l4.07-22.42h5.56c6.893 0 12.5-5.607 12.5-12.5v-20c0-6.893-5.607-12.5-12.5-12.5zm-46.757 0h-181.295c10.727-23.929 34.927-40 61.647-40h58c26.759 0 50.926 16.06 61.648 40zm-98.243-124h15v15h-15zm35.483 30-7.222 39h-41.522l-7.222-39zm72.017-172h-158.5v-15h158.5zm-377-45h62.21c4.142 0 7.5-3.357 7.5-7.5s-3.358-7.5-7.5-7.5h-31.907l129.311-75.235c6.482-3.772 13.873-5.765 21.373-5.765h30.025c7.501 0 14.892 1.993 21.373 5.765l129.311 75.235h-264.486c-4.142 0-7.5 3.357-7.5 7.5s3.358 7.5 7.5 7.5h294.79v15h-392zm30 45v-15h143.5v15zm158.5-15h15v239.083c-1.497.966-2.965 1.992-4.41 3.061-3.371-2.489-6.906-4.723-10.59-6.66zm-87 206.5c0-10.752 8.748-19.5 19.5-19.5s19.5 8.748 19.5 19.5-8.748 19.5-19.5 19.5-19.5-8.748-19.5-19.5zm-9.404 34.5h58c13.417 0 26.487 4.021 37.537 11.416-7.632 8.249-13.574 18.019-17.323 28.584h-139.861c10.72-23.947 34.865-40 61.647-40zm319.904 70h-32.465c-4.143 0-7.5 3.357-7.5 7.5s3.357 7.5 7.5 7.5h14.161l-3.584 19.737c-1.082 5.946-6.255 10.263-12.301 10.263h-363.621c-6.046 0-11.219-4.316-12.301-10.26l-3.584-19.74h346.23c4.143 0 7.5-3.357 7.5-7.5s-3.357-7.5-7.5-7.5h-364.535v-15h432z"/></g></svg>