<svg id="Capa_1" enable-background="new 0 0 512 512" height="512" viewBox="0 0 512 512" width="512" xmlns="http://www.w3.org/2000/svg"><g><g><path d="m499.5 427h-487c-2.761 0-5-2.239-5-5v-20c0-2.761 2.239-5 5-5h487c2.761 0 5 2.239 5 5v20c0 2.761-2.239 5-5 5z" fill="#bcf1f8"/><path d="m504.5 402v20c0 2.76-2.24 5-5 5h-30c2.76 0 5-2.24 5-5v-20c0-2.76-2.24-5-5-5h30c2.76 0 5 2.24 5 5z" fill="#91f2f2"/><path d="m168.5 367h-156c-2.761 0-5-2.239-5-5v-143c0-2.761 2.239-5 5-5h156c2.761 0 5 2.239 5 5v143c0 2.761-2.239 5-5 5z" fill="#e29a6c"/><path d="m173.5 219v143c0 2.76-2.24 5-5 5h-30c2.76 0 5-2.24 5-5v-143c0-2.76-2.24-5-5-5h30c2.76 0 5 2.24 5 5z" fill="#ce845c"/><path d="m173.5 337h-166v25c0 2.761 2.239 5 5 5h156c2.761 0 5-2.239 5-5z" fill="#ce845c"/><path d="m173.5 337v25c0 2.76-2.24 5-5 5h-30c2.76 0 5-2.24 5-5v-25z" fill="#be785a"/><path d="m489.5 367h-281c-2.761 0-5-2.239-5-5v-118h286c8.284 0 15 6.716 15 15v93c0 8.284-6.716 15-15 15z" fill="#736572"/><path d="m504.5 259v93c0 8.28-6.72 15-15 15h-30c8.28 0 15-6.72 15-15v-93c0-8.28-6.72-15-15-15h30c8.28 0 15 6.72 15 15z" fill="#615260"/><path d="m504.5 337h-301v25c0 2.761 2.239 5 5 5h281c8.284 0 15-6.716 15-15z" fill="#615260"/><path d="m504.5 337v15c0 8.28-6.72 15-15 15h-30c8.28 0 15-6.72 15-15v-15z" fill="#514a54"/><path d="m307.5 115h-89c-8.284 0-15 6.716-15 15v114h119v-114c0-8.284-6.716-15-15-15z" fill="#baf39a"/><path d="m474.5 244h-152v-84h137c8.284 0 15 6.716 15 15z" fill="#ff8d95"/><path d="m474.5 175v69h-30v-69c0-8.28-6.72-15-15-15h30c8.28 0 15 6.72 15 15z" fill="#ff7686"/><path d="m287.5 214h-49c-2.761 0-5-2.239-5-5v-59c0-2.761 2.239-5 5-5h49c2.761 0 5 2.239 5 5v59c0 2.761-2.239 5-5 5z" fill="#fff"/><path d="m173.5 244h-166v-25c0-2.761 2.239-5 5-5h156c2.761 0 5 2.239 5 5z" fill="#fcf1f2"/><path d="m173.5 219v25h-30v-25c0-2.76-2.24-5-5-5h30c2.76 0 5 2.24 5 5z" fill="#f4e5e0"/><path d="m384.5 90v20c0 2.761 2.239 5 5 5h22c1.657 0 3 1.343 3 3v42h30v-50c0-13.807-11.193-25-25-25h-30c-2.761 0-5 2.239-5 5z" fill="#736572"/><path d="m444.5 110v50h-30v-50c0-13.81-11.19-25-25-25h30c13.81 0 25 11.19 25 25z" fill="#615260"/><path d="m88.5 397c-22.091 0-40-17.909-40-40 0-22.091 17.909-40 40-40 22.091 0 40 17.909 40 40 0 22.091-17.909 40-40 40z" fill="#fcf1f2"/><path d="m128.5 357c0 11.04-4.48 21.04-11.72 28.28s-17.24 11.72-28.28 11.72c-5.31 0-10.37-1.03-15-2.92 5.01-2.02 9.52-5.04 13.28-8.8 7.24-7.24 11.72-17.24 11.72-28.28s-4.48-21.04-11.72-28.28c-3.76-3.76-8.27-6.78-13.28-8.8 4.63-1.89 9.69-2.92 15-2.92 11.04 0 21.04 4.48 28.28 11.72s11.72 17.24 11.72 28.28z" fill="#f4e5e0"/><path d="m419.5 397c-22.091 0-40-17.909-40-40 0-22.091 17.909-40 40-40 22.091 0 40 17.909 40 40 0 22.091-17.909 40-40 40z" fill="#fcf1f2"/><path d="m459.5 357c0 3.45-.44 6.81-1.26 10-1.81 7.03-5.48 13.3-10.46 18.28-7.24 7.24-17.24 11.72-28.28 11.72-5.31 0-10.37-1.03-15-2.92 5.01-2.02 9.52-5.04 13.28-8.8 4.98-4.98 8.65-11.25 10.46-18.28.82-3.19 1.26-6.55 1.26-10 0-11.04-4.48-21.04-11.72-28.28-3.76-3.76-8.27-6.78-13.28-8.8 4.63-1.89 9.69-2.92 15-2.92 11.04 0 21.04 4.48 28.28 11.72s11.72 17.24 11.72 28.28z" fill="#f4e5e0"/><path d="m288.5 396.932c-22.091 0-40-17.909-40-40 0-22.091 17.909-40 40-40 22.091 0 40 17.909 40 40 0 22.092-17.909 40-40 40z" fill="#fcf1f2"/><path d="m328.5 356.93c0 11.05-4.48 21.05-11.72 28.28-7.24 7.24-17.24 11.72-28.28 11.72-5.31 0-10.37-1.03-15-2.92 5.01-2.02 9.52-5.04 13.28-8.8 7.24-7.23 11.72-17.23 11.72-28.28s-4.48-21.05-11.72-28.28c-3.76-3.76-8.27-6.78-13.28-8.8 4.63-1.89 9.69-2.92 15-2.92 11.04 0 21.04 4.48 28.28 11.72 7.24 7.23 11.72 17.23 11.72 28.28z" fill="#f4e5e0"/></g><g><circle cx="88.5" cy="357" r="10"/><circle cx="419.5" cy="357" r="10"/><circle cx="288.5" cy="356.933" r="10"/><path d="m489.5 374.5c12.406 0 22.5-10.094 22.5-22.5v-93c0-12.406-10.094-22.5-22.5-22.5h-7.5v-61.5c0-12.406-10.094-22.5-22.5-22.5h-7.5v-42.5c0-17.921-14.579-32.5-32.5-32.5h-30c-6.893 0-12.5 5.607-12.5 12.5v20c0 6.893 5.607 12.5 12.5 12.5h17.5v30h-77v-22.5c0-12.406-10.094-22.5-22.5-22.5h-89c-12.406 0-22.5 10.094-22.5 22.5v199.5h-15v-50.5c0-4.143-3.357-7.5-7.5-7.5s-7.5 3.357-7.5 7.5v50.5h-38.807c-8.619-12.092-22.745-20-38.693-20s-30.074 7.908-38.693 20h-34.807v-78h158.5c4.143 0 7.5-3.357 7.5-7.5v-25c0-6.893-5.607-12.5-12.5-12.5h-156c-6.893 0-12.5 5.607-12.5 12.5v143c0 6.893 5.607 12.5 12.5 12.5h31.855c2.228 5.601 5.489 10.678 9.551 15h-41.406c-6.893 0-12.5 5.607-12.5 12.5v20c0 6.893 5.607 12.5 12.5 12.5h412c4.143 0 7.5-3.357 7.5-7.5s-3.357-7.5-7.5-7.5h-409.5v-15h482v15h-37.5c-4.143 0-7.5 3.357-7.5 7.5s3.357 7.5 7.5 7.5h40c6.893 0 12.5-5.607 12.5-12.5v-20c0-6.893-5.607-12.5-12.5-12.5h-45.406c4.062-4.322 7.323-9.399 9.551-15zm-474.5-153h151v15h-151zm26.066 138h-26.066v-15h27.681c-1.089 3.986-1.681 8.174-1.681 12.5 0 .839.023 1.672.066 2.5zm47.434 30c-17.921 0-32.5-14.579-32.5-32.5s14.579-32.5 32.5-32.5 32.5 14.579 32.5 32.5-14.579 32.5-32.5 32.5zm408.5-37.5c0 4.136-3.364 7.5-7.5 7.5h-22.566c.043-.828.066-1.661.066-2.5 0-4.326-.592-8.514-1.681-12.5h31.681zm-105-244.5v-15h27.5c9.649 0 17.5 7.851 17.5 17.5v42.5h-15v-34.5c0-5.79-4.71-10.5-10.5-10.5zm-62 60h129.5c4.136 0 7.5 3.364 7.5 7.5v61.5h-137zm-119-37.5c0-4.136 3.364-7.5 7.5-7.5h89c4.136 0 7.5 3.364 7.5 7.5v106.5h-104zm0 214.5h31.662c-1.077 3.965-1.662 8.131-1.662 12.433 0 .862.026 1.717.072 2.567h-30.072zm-45 0v15h-30.066c.043-.828.066-1.661.066-2.5 0-4.326-.592-8.514-1.681-12.5zm-42.906 45c4.062-4.322 7.323-9.399 9.551-15h35.855c6.893 0 12.5-5.607 12.5-12.5v-17.5h15v17.5c0 6.893 5.607 12.5 12.5 12.5h35.882c2.239 5.603 5.513 10.681 9.589 15zm165.406-.067c-17.921 0-32.5-14.58-32.5-32.501 0-17.92 14.579-32.499 32.5-32.499s32.5 14.579 32.5 32.5-14.579 32.5-32.5 32.5zm34.529.067c4.076-4.319 7.35-9.397 9.589-15h42.737c2.228 5.601 5.489 10.678 9.551 15zm49.037-30h-36.138c.046-.851.072-1.707.072-2.568 0-4.301-.585-8.467-1.662-12.432h39.343c-1.089 3.986-1.681 8.174-1.681 12.5 0 .839.023 1.672.066 2.5zm47.434 30c-17.921 0-32.5-14.579-32.5-32.5s14.579-32.5 32.5-32.5 32.5 14.579 32.5 32.5-14.579 32.5-32.5 32.5zm0-80c-15.948 0-30.074 7.908-38.693 20h-53.566c-8.615-12.13-22.764-20.067-38.741-20.067s-30.126 7.938-38.741 20.067h-38.759v-78h278.5c4.136 0 7.5 3.364 7.5 7.5v70.5h-38.807c-8.619-12.092-22.745-20-38.693-20z"/><path d="m287.5 137.5h-49c-6.893 0-12.5 5.607-12.5 12.5v59c0 6.893 5.607 12.5 12.5 12.5h49c6.893 0 12.5-5.607 12.5-12.5v-59c0-6.893-5.607-12.5-12.5-12.5zm-2.5 69h-44v-54h44z"/></g></g></svg>