<svg id="Capa_1" enable-background="new 0 0 512 512" height="512" viewBox="0 0 512 512" width="512" xmlns="http://www.w3.org/2000/svg"><g><g><path d="m350 504.5h-188c-16.569 0-30-13.431-30-30v-377c0-16.569 13.431-30 30-30h188c16.569 0 30 13.431 30 30v377c0 16.569-13.432 30-30 30z" fill="#736572"/><path d="m380 97.5v377c0 16.57-13.43 30-30 30h-30c16.57 0 30-13.43 30-30v-377c0-16.57-13.43-30-30-30h30c16.57 0 30 13.43 30 30z" fill="#615260"/><path d="m350 102.5v367c0 2.761-2.239 5-5 5h-178c-2.761 0-5-2.239-5-5v-367c0-2.761 2.239-5 5-5h32.719c4.34 0 8.184 2.799 9.517 6.929l4.414 13.681c2 6.19 7.76 10.39 14.27 10.39h56.16c6.51 0 12.27-4.2 14.27-10.39l4.414-13.681c1.333-4.13 5.177-6.929 9.517-6.929h32.719c2.761 0 5 2.239 5 5z" fill="#fff"/><path d="m256 309.5c-35.346 0-64-28.654-64-64 0-35.346 28.654-64 64-64 35.346 0 64 28.654 64 64 0 35.346-28.654 64-64 64z" fill="#736572"/><path d="m320 245.5c0 17.68-7.16 33.68-18.74 45.26s-27.58 18.74-45.26 18.74c-5.17 0-10.19-.61-15-1.77 11.65-2.79 22.06-8.77 30.26-16.97 11.58-11.58 18.74-27.58 18.74-45.26s-7.16-33.68-18.74-45.26c-8.2-8.2-18.61-14.18-30.26-16.97 4.81-1.16 9.83-1.77 15-1.77 17.68 0 33.68 7.16 45.26 18.74s18.74 27.58 18.74 45.26z" fill="#615260"/><path d="m315 444.5h-118c-2.761 0-5-2.239-5-5v-20c0-2.761 2.239-5 5-5h118c2.761 0 5 2.239 5 5v20c0 2.761-2.239 5-5 5z" fill="#ff8d95"/><path d="m320 419.5v20c0 2.76-2.24 5-5 5h-30c2.76 0 5-2.24 5-5v-20c0-2.76-2.24-5-5-5h30c2.76 0 5 2.24 5 5z" fill="#ff7686"/><path d="m102 200.5v-108c0-30.376 24.624-55 55-55h198c30.376 0 55 24.624 55 55v108h30v-108c0-46.944-38.056-85-85-85h-198c-46.944 0-85 38.056-85 85v108z" fill="#f4e5e0"/><path d="m440 92.5v108h-30v-108c0-.47-.01-.95-.02-1.42-.75-46.29-38.52-83.58-84.98-83.58h30c46.94 0 85 38.06 85 85z" fill="#e6d6d1"/><path d="m102 200.5h-30c-16.569 0-30 13.431-30 30v79c0 16.569 13.431 30 30 30 16.569 0 30-13.431 30-30z" fill="#cbb0f2"/><path d="m440 200.5h-30v109c0 16.569 13.431 30 30 30 16.569 0 30-13.431 30-30v-79c0-16.569-13.431-30-30-30z" fill="#cbb0f2"/><path d="m470 230.5v79c0 8.28-3.36 15.78-8.79 21.21s-12.93 8.79-21.21 8.79c-5.46 0-10.59-1.46-15-4.03 2.28-1.31 4.36-2.91 6.21-4.76 5.43-5.43 8.79-12.93 8.79-21.21v-79c0-16.57-13.43-30-30-30h30c16.57 0 30 13.43 30 30z" fill="#b696ef"/><path d="m470 300v-60c16.569 0 30 13.431 30 30 0 16.569-13.431 30-30 30z" fill="#91f2f2"/><path d="m42 300v-60c-16.569 0-30 13.431-30 30 0 16.569 13.431 30 30 30z" fill="#bcf1f8"/></g><g><path d="m350 60h-188c-20.678 0-37.5 16.822-37.5 37.5v377c0 20.678 16.822 37.5 37.5 37.5h188c20.678 0 37.5-16.822 37.5-37.5v-377c0-20.678-16.822-37.5-37.5-37.5zm22.5 414.5c0 12.406-10.094 22.5-22.5 22.5h-188c-12.406 0-22.5-10.094-22.5-22.5v-377c0-12.406 10.094-22.5 22.5-22.5h188c12.406 0 22.5 10.094 22.5 22.5z"/><path d="m345 90h-32.719c-7.622 0-14.315 4.874-16.654 12.126l-4.414 13.679c-1.004 3.107-3.871 5.195-7.133 5.195h-56.16c-3.262 0-6.129-2.088-7.132-5.193l-4.415-13.679c-2.339-7.254-9.032-12.128-16.654-12.128h-32.719c-6.893 0-12.5 5.607-12.5 12.5v367c0 6.893 5.607 12.5 12.5 12.5h178c6.893 0 12.5-5.607 12.5-12.5v-367c0-6.893-5.607-12.5-12.5-12.5zm-2.5 377h-173v-362h30.219c1.089 0 2.045.695 2.379 1.733l4.416 13.683c3.011 9.321 11.614 15.584 21.406 15.584h56.16c9.792 0 18.395-6.263 21.407-15.586l4.415-13.683c.334-1.036 1.29-1.731 2.379-1.731h30.219z"/><path d="m256 174c-39.425 0-71.5 32.075-71.5 71.5s32.075 71.5 71.5 71.5 71.5-32.075 71.5-71.5-32.075-71.5-71.5-71.5zm0 128c-31.154 0-56.5-25.346-56.5-56.5s25.346-56.5 56.5-56.5 56.5 25.346 56.5 56.5-25.346 56.5-56.5 56.5z"/><path d="m263.5 211.5c0-4.143-3.357-7.5-7.5-7.5-22.883 0-41.5 18.617-41.5 41.5 0 4.143 3.357 7.5 7.5 7.5s7.5-3.357 7.5-7.5c0-14.612 11.888-26.5 26.5-26.5 4.143 0 7.5-3.357 7.5-7.5z"/><path d="m290 238c-4.143 0-7.5 3.357-7.5 7.5 0 14.612-11.888 26.5-26.5 26.5-4.143 0-7.5 3.357-7.5 7.5s3.357 7.5 7.5 7.5c22.883 0 41.5-18.617 41.5-41.5 0-4.143-3.357-7.5-7.5-7.5z"/><path d="m256 255.5c5.514 0 10-4.486 10-10s-4.486-10-10-10-10 4.486-10 10 4.486 10 10 10z"/><path d="m315 407h-118c-6.893 0-12.5 5.607-12.5 12.5v20c0 6.893 5.607 12.5 12.5 12.5h118c6.893 0 12.5-5.607 12.5-12.5v-20c0-6.893-5.607-12.5-12.5-12.5zm-2.5 30h-113v-15h113z"/><path d="m232 362c-4.143 0-7.5 3.357-7.5 7.5s3.357 7.5 7.5 7.5h48c4.143 0 7.5-3.357 7.5-7.5s-3.357-7.5-7.5-7.5z"/><path d="m307.5 339.5c0-4.143-3.357-7.5-7.5-7.5h-88c-4.143 0-7.5 3.357-7.5 7.5s3.357 7.5 7.5 7.5h88c4.143 0 7.5-3.357 7.5-7.5z"/><path d="m507.5 270c0-18.064-12.919-33.243-30-36.738v-2.762c0-18.11-12.904-33.261-30-36.745v-101.255c0-51.005-41.495-92.5-92.5-92.5h-198c-51.005 0-92.5 41.495-92.5 92.5v101.255c-17.096 3.484-30 18.635-30 36.745v2.774c-17.044 3.52-30 18.776-30 36.726 0 17.999 12.94 33.22 30 36.73v2.77c0 20.678 16.822 37.5 37.5 37.5s37.5-16.822 37.5-37.5v-74c0-4.143-3.357-7.5-7.5-7.5s-7.5 3.357-7.5 7.5v74c0 12.406-10.094 22.5-22.5 22.5s-22.5-10.094-22.5-22.5v-79c0-12.406 10.094-22.5 22.5-22.5h30c4.143 0 7.5-3.357 7.5-7.5v-108c0-26.191 21.309-47.5 47.5-47.5h198c26.191 0 47.5 21.309 47.5 47.5v108c0 4.143 3.357 7.5 7.5 7.5h30c12.406 0 22.5 10.094 22.5 22.5v79c0 12.406-10.094 22.5-22.5 22.5s-22.5-10.094-22.5-22.5v-74c0-4.143-3.357-7.5-7.5-7.5s-7.5 3.357-7.5 7.5v74c0 20.678 16.822 37.5 37.5 37.5s37.5-16.822 37.5-37.5v-2.769c17.065-3.507 30-18.717 30-36.731zm-488 0c0-9.69 6.292-18.07 15-21.193v42.391c-8.714-3.115-15-11.481-15-21.198zm335.5-240h-198c-34.463 0-62.5 28.037-62.5 62.5v100.5h-15v-100.5c0-42.733 34.767-77.5 77.5-77.5h198c42.733 0 77.5 34.767 77.5 77.5v100.5h-15v-100.5c0-34.463-28.037-62.5-62.5-62.5zm122.5 261.198v-42.403c8.723 3.104 15 11.452 15 21.204 0 9.726-6.284 18.087-15 21.199z"/></g></g></svg>