<svg id="Capa_1" enable-background="new 0 0 512 512" height="512" viewBox="0 0 512 512" width="512" xmlns="http://www.w3.org/2000/svg"><g><g><path d="m157.5 392.5c-44.183 0-80 35.817-80 80v12c0 11.046 8.954 20 20 20h317c11.046 0 20-8.954 20-20v-12c0-44.183-35.817-80-80-80z" fill="#ffc263"/><path d="m434.5 472.5v12c0 11.05-8.95 20-20 20h-30c11.05 0 20-8.95 20-20v-12c0-44.18-35.82-80-80-80h30c44.18 0 80 35.82 80 80z" fill="#ffaa5a"/><path d="m184.755 372.406 142.485.002v38.159l-71.243 21.619-70.284-37.517z" fill="#ffaa5a"/><g fill="#ce845c"><path d="m299.5 403.841v-61.341h-87v62.564l43.497 27.122z"/><path d="m333.5 259.5h56.5c16.845 0 30.5-13.655 30.5-30.5 0-16.845-13.655-30.5-30.5-30.5h-56.5z"/><path d="m178.5 259.5h-56.5c-16.845 0-30.5-13.655-30.5-30.5 0-16.845 13.655-30.5 30.5-30.5h56.5z"/></g><path d="m373.5 158.5v81.5c0 64.893-52.606 117.5-117.5 117.5-64.893 0-117.5-52.606-117.5-117.5v-81.5z" fill="#e29a6c"/><path d="m373.5 158.5v81.5c0 64.89-52.61 117.5-117.5 117.5-5.08 0-10.09-.32-15-.95 57.81-7.37 102.5-56.74 102.5-116.55v-81.5z" fill="#ce845c"/><path d="m403.5 159.62v42.03c-4.07-2.02-8.65-3.15-13.5-3.15h-26.5c-11.05 0-20-8.95-20-20v-10z" fill="#736572"/><path d="m220.458 504.5 35.542-31.906 35.538 31.906z" fill="#f4e5e0"/><path d="m229.643 463.594 12.996 11.667c7.601 6.823 19.122 6.823 26.722-.001l12.992-11.664-1.403-26.277-24.952-5.133-29.774 8.802z" fill="#fcf1f2"/><path d="m342.104 413.458-59.751 50.137-26.354-31.408 71.242-59.779 16.712 19.917c5.325 6.346 4.497 15.808-1.849 21.133z" fill="#ffe077"/><path d="m169.891 413.456 59.751 50.137 26.354-31.408-71.242-59.779-16.712 19.917c-5.325 6.347-4.497 15.808 1.849 21.133z" fill="#ffe077"/><path d="m329.5 474.5h40c5.523 0 10 4.477 10 10v20h-60v-20c0-5.523 4.477-10 10-10z" fill="#ffaa5a"/><path d="m168.5 165.5v13c0 11.05-8.95 20-20 20h-26.5c-4.85 0-9.43 1.13-13.5 3.15v-45.76z" fill="#736572"/><path d="m438.5 138.5c5.523 0 10 4.477 10 10v10c0 5.523-4.477 10-10 10h-365c-5.523 0-10-4.477-10-10v-10c0-5.523 4.477-10 10-10z" fill="#fcf1f2"/><path d="m448.5 148.5v10c0 5.52-4.48 10-10 10h-30c5.52 0 10-4.48 10-10v-10c0-5.52-4.48-10-10-10h30c5.52 0 10 4.48 10 10z" fill="#f4e5e0"/><path d="m388.5 108.5h-265c-8.284 0-15 6.716-15 15v15h295v-15c0-8.284-6.716-15-15-15z" fill="#e6d6d1"/><path d="m403.5 123.5v15h-30v-15c0-8.28-6.72-15-15-15h30c8.28 0 15 6.72 15 15z" fill="#d3c6c3"/><path d="m298.5 7.5h-85c-49.706 0-90 40.294-90 90v11h265v-11c0-49.706-40.294-90-90-90z" fill="#fcf1f2"/><path d="m388.5 97.5v11h-30v-11c0-49.71-40.29-90-90-90h30c49.71 0 90 40.29 90 90z" fill="#f4e5e0"/><path d="m388.5 97.5v11h-265v-11c0-6.52.69-12.88 2.01-19h260.98c1.32 6.12 2.01 12.48 2.01 19z" fill="#9ae59c"/><path d="m388.5 97.5v11h-30v-11c0-6.52-.69-12.88-2.01-19h30c1.32 6.12 2.01 12.48 2.01 19z" fill="#82d182"/></g><g><circle cx="322" cy="287" r="10"/><path d="m438.5 131h-27.5v-7.5c0-9.777-6.271-18.114-15-21.21v-4.79c0-53.762-43.738-97.5-97.5-97.5h-85c-53.762 0-97.5 43.738-97.5 97.5v4.79c-8.729 3.096-15 11.432-15 21.21v7.5h-27.5c-9.649 0-17.5 7.851-17.5 17.5v10c0 9.649 7.851 17.5 17.5 17.5h27.5v21.35c-10.238 6.815-17 18.456-17 31.65 0 20.953 17.047 38 38 38h11.946c8.61 38.949 35.436 71.132 71.054 87.114v10.793h-20.245c-2.216.001-4.382 1.023-5.791 2.733l-14.567 17.36h-6.897c-48.248 0-87.5 39.252-87.5 87.5v12c0 15.164 12.337 27.5 27.5 27.5h317c15.163 0 27.5-12.336 27.5-27.5v-12c0-48.248-39.252-87.5-87.5-87.5h-6.904l-14.562-17.354c-1.408-1.713-3.576-2.738-5.794-2.738h-20.24v-10.794c35.619-15.982 62.444-48.164 71.054-87.114h11.946c20.953 0 38-17.047 38-38 0-13.194-6.762-24.835-17-31.65v-21.35h27.5c9.649 0 17.5-7.851 17.5-17.5v-10c0-9.649-7.851-17.5-17.5-17.5zm-225-116h85c36.221 0 67.042 23.474 78.109 56h-241.218c11.067-32.526 41.888-56 78.109-56zm-97.5 108.5c0-4.136 3.364-7.5 7.5-7.5h45.207c4.143 0 7.5-3.358 7.5-7.5s-3.357-7.5-7.5-7.5h-37.707v-3.5c0-3.904.292-7.739.819-11.5h248.362c.527 3.761.819 7.596.819 11.5v3.5h-177.293c-4.143 0-7.5 3.358-7.5 7.5s3.357 7.5 7.5 7.5h184.793c4.136 0 7.5 3.364 7.5 7.5v7.5h-280zm0 52.5h45v2.5c0 6.893-5.607 12.5-12.5 12.5h-26.5c-2.042 0-4.045.167-6 .478zm6 76c-12.683 0-23-10.318-23-23s10.317-23 23-23h9v15.5h-9.5c-4.143 0-7.5 3.358-7.5 7.5s3.357 7.5 7.5 7.5h9.5v3.5c0 4.048.201 8.049.579 12zm133.997 191.853 15.948 19.006-7.595 6.819c-4.762 4.274-11.939 4.274-16.701 0l-7.598-6.821zm70.318-60.878 11.892 14.171c2.655 3.035 2.218 8.038-.924 10.566 0 0 0 0-.001 0l-54.005 45.316-16.713-19.917zm-75.555 104.401c1.73.336 3.484.517 5.239.517s3.509-.181 5.239-.517l10.72 9.624h-31.919zm-22.042-34.349-54.005-45.316s0 0-.001 0c-3.168-2.658-3.582-7.398-.925-10.566l11.893-14.172 59.751 50.137zm-143.718 31.473v-12c0-39.856 32.33-72.296 72.142-72.491-.606 7.061 2.1 14.301 7.93 19.193h-.001l59.663 50.064 11.874 10.659-19.023 17.075h-120.085c-6.893 0-12.5-5.607-12.5-12.5zm287 12.5h-45v-15h45zm55-24.5v12c0 6.893-5.607 12.5-12.5 12.5h-27.5v-17.5c0-6.893-5.607-12.5-12.5-12.5h-50c-6.893 0-12.5 5.607-12.5 12.5v17.5h-17.59l-19.019-17.076 11.885-10.67 59.648-50.052c4.604-3.863 7.428-9.288 7.951-15.275.115-1.319.096-2.626-.014-3.919 39.811.198 72.139 32.637 72.139 72.492zm-135-80.312-36.001 30.209-35.999-30.207v-32.482c11.406 3.436 23.489 5.292 36 5.292s24.594-1.856 36-5.292zm-36-42.188c-60.654 0-110-49.346-110-110v-34h2.5c15.163 0 27.5-12.336 27.5-27.5v-2.5h160v2.5c0 15.164 12.337 27.5 27.5 27.5h2.5v34c0 60.654-49.346 110-110 110zm134-98h-9.579c.378-3.951.579-7.952.579-12v-3.5h9.5c4.143 0 7.5-3.358 7.5-7.5s-3.357-7.5-7.5-7.5h-9.5v-15.5h9c12.683 0 23 10.318 23 23s-10.317 23-23 23zm51-93.5c0 1.378-1.121 2.5-2.5 2.5h-60c-4.143 0-7.5 3.358-7.5 7.5s3.357 7.5 7.5 7.5h17.5v15.478c-1.955-.312-3.958-.478-6-.478h-26.5c-6.893 0-12.5-5.607-12.5-12.5v-10c0-4.142-3.357-7.5-7.5-7.5h-270c-1.379 0-2.5-1.122-2.5-2.5v-10c0-1.378 1.121-2.5 2.5-2.5h365c1.379 0 2.5 1.122 2.5 2.5z"/><path d="m323 244v-15c0-4.142-3.357-7.5-7.5-7.5s-7.5 3.358-7.5 7.5v15c0 4.142 3.357 7.5 7.5 7.5s7.5-3.358 7.5-7.5z"/><path d="m196.5 221.5c-4.143 0-7.5 3.358-7.5 7.5v15c0 4.142 3.357 7.5 7.5 7.5s7.5-3.358 7.5-7.5v-15c0-4.142-3.357-7.5-7.5-7.5z"/><path d="m287.754 279.621c-18.781 15.805-44.887 15.813-63.482.022-3.156-2.681-7.89-2.295-10.571.862s-2.295 7.89.862 10.572c12.147 10.317 26.74 15.474 41.362 15.474 14.607 0 29.245-5.151 41.487-15.452 3.169-2.667 3.576-7.398.91-10.567-2.668-3.171-7.397-3.579-10.568-.911z"/><circle cx="190" cy="287" r="10"/></g></g></svg>