<svg id="Capa_1" enable-background="new 0 0 512 512" height="512" viewBox="0 0 512 512" width="512" xmlns="http://www.w3.org/2000/svg"><g><g><path d="m479.5 377.5h-447c-13.807 0-25-11.193-25-25v-310c0-13.807 11.193-25 25-25h447c13.807 0 25 11.193 25 25v310c0 13.807-11.193 25-25 25z" fill="#736572"/><path d="m504.5 42.5v310c0 13.81-11.19 25-25 25h-30c13.81 0 25-11.19 25-25v-310c0-13.81-11.19-25-25-25h30c13.81 0 25 11.19 25 25z" fill="#615260"/><path d="m469.5 347.5h-427c-2.761 0-5-2.239-5-5v-290c0-2.761 2.239-5 5-5h427c2.761 0 5 2.239 5 5v290c0 2.761-2.239 5-5 5z" fill="#fff"/><path d="m414.5 209.5h-317c-8.284 0-15-6.716-15-15 0-8.284 6.716-15 15-15h317c8.284 0 15 6.716 15 15 0 8.284-6.716 15-15 15z" fill="#fcf1f2"/><path d="m334.5 209.5h-237c-8.284 0-15-6.716-15-15 0-8.284 6.716-15 15-15h237z" fill="#baf39a"/><path d="m474.5 112.5h-437v-60c0-2.761 2.239-5 5-5h427c2.761 0 5 2.239 5 5z" fill="#ffe077"/><path d="m409.5 47.5h60c2.761 0 5 2.239 5 5v60h-65z" fill="#ffc263"/><path d="m296.5 307.5v-6c0-22.091 17.909-40 40-40h8.271c15.363 0 29.368 8.799 36.036 22.639l41.837 86.844c10.436 21.662 15.855 45.397 15.855 69.442v14.075c0 22.091-17.909 40-40 40h-26c-22.091 0-40-17.909-40-40 0-9.582-2.004-19.059-5.882-27.821l-3.22-7.275c-3.204-7.237-10.374-11.905-18.288-11.905h-98.219c-7.915 0-15.085 4.667-18.288 11.905l-3.22 7.275c-3.879 8.762-5.882 18.239-5.882 27.821 0 22.091-17.909 40-40 40h-26c-22.091 0-40-17.909-40-40v-14.074c0-24.045 5.419-47.78 15.855-69.442l41.837-86.844c6.668-13.841 20.673-22.639 36.036-22.639h8.271c22.091 0 40 17.909 40 40v6c0 5.523 4.477 10 10 10h61c5.524-.001 10.001-4.478 10.001-10.001z" fill="#bcf1f8"/><path d="m438.5 440.43v14.07c0 22.09-17.91 40-40 40h-26c-.65 0-1.3-.02-1.94-.05 21.13-1.07 37.94-18.55 37.94-39.95v-14.07c0-24.05-5.42-47.78-15.85-69.45l-41.84-86.84c-5.05-10.48-14.31-18.07-25.19-21.14 3.46-.98 7.11-1.5 10.88-1.5h8.27c15.36 0 29.37 8.8 36.04 22.64l41.84 86.84c10.43 21.67 15.85 45.4 15.85 69.45z" fill="#91f2f2"/><path d="m161 387.5c-13.807 0-25-11.193-25-25 0-13.807 11.193-25 25-25 13.807 0 25 11.193 25 25 0 13.807-11.193 25-25 25z" fill="#fcf1f2"/><path d="m256 294c-9.665 0-17.5-7.835-17.5-17.5 0-9.665 7.835-17.5 17.5-17.5 9.665 0 17.5 7.835 17.5 17.5 0 9.665-7.835 17.5-17.5 17.5z" fill="#cbb0f2"/></g><g><path d="m128.5 362.5c0 17.92 14.579 32.5 32.5 32.5s32.5-14.58 32.5-32.5-14.579-32.5-32.5-32.5-32.5 14.58-32.5 32.5zm50 0c0 9.649-7.851 17.5-17.5 17.5s-17.5-7.851-17.5-17.5 7.851-17.5 17.5-17.5 17.5 7.851 17.5 17.5z"/><path d="m351 330c-4.143 0-7.5 3.358-7.5 7.5v17.5h-17.5c-4.143 0-7.5 3.358-7.5 7.5s3.357 7.5 7.5 7.5h17.5v17.5c0 4.142 3.357 7.5 7.5 7.5s7.5-3.358 7.5-7.5v-17.5h17.5c4.143 0 7.5-3.358 7.5-7.5s-3.357-7.5-7.5-7.5h-17.5v-17.5c0-4.142-3.357-7.5-7.5-7.5z"/><path d="m298.5 377.5c0-4.142-3.357-7.5-7.5-7.5h-20c-4.143 0-7.5 3.358-7.5 7.5s3.357 7.5 7.5 7.5h20c4.143 0 7.5-3.358 7.5-7.5z"/><path d="m221 370c-4.143 0-7.5 3.358-7.5 7.5s3.357 7.5 7.5 7.5h20c4.143 0 7.5-3.358 7.5-7.5s-3.357-7.5-7.5-7.5z"/><path d="m479.5 10h-447c-17.921 0-32.5 14.58-32.5 32.5v310c0 17.92 14.579 32.5 32.5 32.5h42.952c-6.213 17.775-9.452 36.634-9.452 55.426v14.074c0 26.191 21.309 47.5 47.5 47.5h26c26.191 0 47.5-21.309 47.5-47.5 0-8.59 1.763-16.929 5.24-24.785l3.221-7.275c2-4.52 6.486-7.44 11.43-7.44h50.109c4.143 0 7.5-3.358 7.5-7.5s-3.357-7.5-7.5-7.5h-50.109c-10.875 0-20.745 6.425-25.146 16.369l-3.221 7.275c-4.33 9.781-6.524 20.162-6.524 30.856 0 17.92-14.579 32.5-32.5 32.5h-26c-17.921 0-32.5-14.58-32.5-32.5v-14.074c0-22.779 5.226-45.666 15.111-66.187l41.838-86.844c5.384-11.175 16.876-18.395 29.28-18.395h8.271c17.921 0 32.5 14.58 32.5 32.5v6c0 9.649 7.851 17.5 17.5 17.5h61c9.649 0 17.5-7.851 17.5-17.5v-6c0-17.92 14.579-32.5 32.5-32.5h8.271c12.403 0 23.896 7.22 29.279 18.395l41.838 86.844c9.886 20.521 15.112 43.408 15.112 66.187v14.074c0 17.92-14.579 32.5-32.5 32.5h-26c-17.921 0-32.5-14.58-32.5-32.5 0-10.694-2.194-21.075-6.524-30.857l-3.22-7.274c-4.402-9.944-14.272-16.369-25.147-16.369h-13.109c-4.143 0-7.5 3.358-7.5 7.5s3.357 7.5 7.5 7.5h13.109c4.943 0 9.43 2.92 11.431 7.441l3.22 7.273c3.478 7.857 5.24 16.196 5.24 24.786 0 26.191 21.309 47.5 47.5 47.5h26c26.191 0 47.5-21.309 47.5-47.5v-14.074c0-18.792-3.239-37.651-9.452-55.426h42.952c17.921 0 32.5-14.58 32.5-32.5v-310c0-17.92-14.579-32.5-32.5-32.5zm-223.5 274c-4.136 0-7.5-3.364-7.5-7.5s3.364-7.5 7.5-7.5 7.5 3.364 7.5 7.5-3.364 7.5-7.5 7.5zm241 68.5c0 9.649-7.851 17.5-17.5 17.5h-49.043c-.351-.758-.692-1.52-1.054-2.271l-6.133-12.729h46.23c6.893 0 12.5-5.607 12.5-12.5v-290c0-6.893-5.607-12.5-12.5-12.5h-427c-6.893 0-12.5 5.607-12.5 12.5v60c0 4.142 3.357 7.5 7.5 7.5h429.5v220h-50.956l-28.479-59.116c-7.869-16.331-24.666-26.884-42.794-26.884h-8.271c-26.191 0-47.5 21.309-47.5 47.5v6c0 1.378-1.121 2.5-2.5 2.5h-23v-12.29c8.729-3.096 15-11.432 15-21.21 0-12.407-10.094-22.5-22.5-22.5s-22.5 10.093-22.5 22.5c0 9.777 6.271 18.114 15 21.21v12.29h-23c-1.379 0-2.5-1.122-2.5-2.5v-6c0-26.191-21.309-47.5-47.5-47.5h-8.271c-18.128 0-34.925 10.553-42.793 26.884l-28.48 59.116h-50.956v-192.5c0-4.142-3.357-7.5-7.5-7.5s-7.5 3.358-7.5 7.5v195c0 6.893 5.607 12.5 12.5 12.5h46.23l-6.132 12.729c-.362.752-.704 1.514-1.054 2.271h-49.044c-9.649 0-17.5-7.851-17.5-17.5v-310c0-9.649 7.851-17.5 17.5-17.5h447c9.649 0 17.5 7.851 17.5 17.5zm-452-247.5v-50h357v50zm372-50h50v50h-50z"/><path d="m97.5 217h237 80c12.406 0 22.5-10.093 22.5-22.5s-10.094-22.5-22.5-22.5h-80-237c-12.406 0-22.5 10.093-22.5 22.5s10.094 22.5 22.5 22.5zm324.5-22.5c0 4.136-3.364 7.5-7.5 7.5h-72.5v-15h72.5c4.136 0 7.5 3.364 7.5 7.5zm-324.5-7.5h229.5v15h-229.5c-4.136 0-7.5-3.364-7.5-7.5s3.364-7.5 7.5-7.5z"/><circle cx="155" cy="80" r="10"/><circle cx="120" cy="80" r="10"/><circle cx="85" cy="80" r="10"/></g></g></svg>